<svg xmlns="http://www.w3.org/2000/svg" viewBox="0 0 750 500"><defs><style>.cls-1{fill:#c6b299;}.cls-2{fill:#2a2829;}.cls-3{fill:#73251d;}.cls-4{fill:#d8cbb9;}.cls-5{fill:#eddcca;}.cls-6{fill:#d8c4ad;}.cls-7{fill:#fff;}.cls-8{fill:#c6c9ce;}.cls-9{fill:#757f8e;}.cls-10{fill:#6e3837;}.cls-11{fill:#698a95;}.cls-12{fill:#e27715;}.cls-13{fill:#ac2e26;}.cls-14{fill:#f4d892;}.cls-15{fill:#fef6df;}.cls-16{fill:#a66768;}.cls-17{fill:#fcae9f;}.cls-18{fill:#db736b;}.cls-19{fill:#c14340;}.cls-20{fill:#fff4d5;}.cls-21{fill:#9fcfce;}</style></defs><g id="BACKGROUND"><rect class="cls-1" width="750" height="500"/></g><g id="OBJECTS"><path class="cls-2" d="M90.53,356c17.55,6.87,29.16,29.29,38.55,49.62,10.4,22.5,23.87,47.43,44.83,50.48,11.11,1.62,22-3.5,32.84-7,47.16-15.42,96.92-1.19,144.79,10.46s99.6,20.19,143.81-5.16c13.95-8,27-19.34,42.27-22.3,6.64-1.29,13.45-.92,20.09-2.21,16.06-3.11,30-15.84,40.1-31.48C606,385.62,611.92,371,617.16,356Z"/><rect class="cls-3" width="750" height="357.8"/><rect class="cls-4" width="750" height="351.72"/><path class="cls-1" d="M103.26,148.31c-1.58,16.4-17.54,30-17.2,46.47C86.33,208.56,98,219.92,110,228.5s25.64,16.33,32.9,28.47c13,21.67,1.23,48.62,6.53,72.74a57.1,57.1,0,0,0,9.59,21H614c2.24-17.64-5.39-36.86,2.36-53.39,7.66-16.31,27.51-24.48,43-35.39,42.72-30,53.38-90.77,23-131.11-15.39-20.43-39-35.17-53.27-56.26-12-17.79-17.25-39.93-34.83-53.49-24.08-18.57-60.61-13.4-90.86-4.76-43.47,12.43-89,30.07-133,19.14C343.17,28.67,319.28,11.23,291,9.51c-17.91-1.09-35.42,4.33-53.2,6.56-40,5-84.32-5.58-119,13C91.38,43.84,77.76,76.47,87.65,103.75,93.08,118.71,104.78,132.64,103.26,148.31Z"/><path class="cls-5" d="M229.79,0c-35.76,39.85-57.3,91.24-57.3,147.34,0,126.66,109.77,229.35,245.17,229.35S662.84,274,662.84,147.34c0-56.1-21.54-107.49-57.3-147.34Z"/><path class="cls-6" d="M210.86,82.53c-84.44,0-159.92.13-210,.32V84c50.12.2,125.6.32,210,.32,150.9,0,273.23-.39,273.23-.88S361.76,82.53,210.86,82.53Z"/><path class="cls-6" d="M749.82,74.72c-43.68-.32-123.77-.53-215.36-.53-138.33,0-250.46.49-250.46,1.09s112.13,1.1,250.46,1.1c91.59,0,171.68-.21,215.36-.54Z"/><path class="cls-6" d="M234.32,58.37c-106.66,0-197.69.35-233.5.85v.94c35.81.49,126.84.84,233.5.84,137.94,0,249.77-.59,249.77-1.31S372.26,58.37,234.32,58.37Z"/><path class="cls-6" d="M79.07,72.87c-34.68,0-64.56.26-78.25.63v.93c13.69.37,43.57.63,78.25.63,47.64,0,86.25-.49,86.25-1.09S126.71,72.87,79.07,72.87Z"/><path class="cls-6" d="M658,67.16c0,.72-123.87,1.31-276.68,1.31S104.6,67.88,104.6,67.16s123.88-1.32,276.68-1.32S658,66.43,658,67.16Z"/><path class="cls-6" d="M749.82,64.53h-8.37c-32.39,0-58.65.59-58.65,1.32s26.26,1.32,58.65,1.32l8.37,0Z"/><path class="cls-6" d="M749.82,56c-24.62-.14-54-.22-85.65-.22-86.5,0-156.62.59-156.62,1.32s70.12,1.32,156.62,1.32c31.61,0,61-.08,85.65-.22Z"/><path class="cls-6" d="M227.42,48.7c-89.4,0-169.95.19-226.6.49v2.1c56.65.3,137.2.49,226.6.49,171.48,0,310.49-.69,310.49-1.54S398.9,48.7,227.42,48.7Z"/><path class="cls-6" d="M749.82,42.52c-36.22-.25-87.47-.41-144.3-.41-109.74,0-198.71.59-198.71,1.32s89,1.32,198.71,1.32c56.83,0,108.08-.16,144.3-.41Z"/><path class="cls-6" d="M307.45,36c-148.1,0-272.39.36-306.63.83v.54c34.24.47,158.53.83,306.63.83,174.53,0,316-.49,316-1.1S482,36,307.45,36Z"/><path class="cls-6" d="M145.31,43C90.1,43,39.6,43.05.82,43.15v1c38.78.1,89.28.16,144.49.16,122.32,0,221.48-.3,221.48-.66S267.63,43,145.31,43Z"/><path class="cls-6" d="M749.82,24.94c-57.1-.5-160-.84-277.46-.84-179.48,0-325,.79-325,1.76s145.5,1.75,325,1.75c117.46,0,220.36-.33,277.46-.84Z"/><path class="cls-6" d="M749.82,33.79c-4.28,0-8.69,0-13.2,0-38.11,0-69,.59-69,1.32s30.89,1.32,69,1.32l13.2,0Z"/><path class="cls-6" d="M36.29,28.93c-12.86,0-24.94.05-35.47.14V31c10.53.09,22.61.14,35.47.14,40.78,0,73.83-.49,73.83-1.1S77.07,28.93,36.29,28.93Z"/><path class="cls-6" d="M257.78,16.63c-121.71,0-224.44.4-257,.95v.74c32.52.55,135.25.95,257,.95,147.85,0,267.71-.59,267.71-1.32S405.63,16.63,257.78,16.63Z"/><path class="cls-6" d="M749.82,15.16c-20.17-.18-47.09-.29-76.68-.29C610.65,14.87,560,15.36,560,16s50.67,1.1,113.16,1.1c29.59,0,56.51-.11,76.68-.29Z"/><ellipse class="cls-6" cx="395.77" cy="11.14" rx="242.87" ry="1.43"/><path class="cls-6" d="M749.82,8.28h-2.16c-38.87,0-70.38.4-70.38.88s31.51.88,70.38.88h2.16Z"/><path class="cls-6" d="M36.29,9.16c-12.41,0-24.34,0-35.47.07v2.5c11.13,0,23.06.07,35.47.07C96.88,11.8,146,11.21,146,10.48S96.88,9.16,36.29,9.16Z"/><path class="cls-6" d="M234.32,1.25c-94.42,0-178.62.23-233.5.58V3.75c54.88.35,139.08.58,233.5.58,165.38,0,299.45-.69,299.45-1.54S399.7,1.25,234.32,1.25Z"/><path class="cls-6" d="M749.82.89C731.25.84,710.09.81,687.63.81c-73.55,0-133.17.3-133.17.66s59.62.66,133.17.66c22.46,0,43.62,0,62.19-.08Z"/><path class="cls-6" d="M749.82,88.83c-49.51-.22-130.92-.37-223-.37-150.9,0-273.23.39-273.23.88s122.33.88,273.23.88c92,0,173.44-.15,223-.37Z"/><path class="cls-6" d="M203.27,96.37c-83.2,0-156.9.18-202.45.45v1.29c45.55.28,119.25.46,202.45.46,138.32,0,250.46-.5,250.46-1.1S341.59,96.37,203.27,96.37Z"/><path class="cls-6" d="M749.82,112.85c-19.55-.63-122.42-1.1-246.41-1.1-138,0-249.77.59-249.77,1.31s111.82,1.32,249.77,1.32c124,0,226.86-.47,246.41-1.1Z"/><ellipse class="cls-6" cx="658.65" cy="98.79" rx="86.25" ry="1.1"/><path class="cls-6" d="M79.76,105.6c0-.73,123.88-1.32,276.68-1.32s276.68.59,276.68,1.32-123.87,1.31-276.68,1.31S79.76,106.32,79.76,105.6Z"/><path class="cls-6" d="M.82,105.6v2.63c30.26-.06,54.1-.62,54.1-1.32S31.08,105.65.82,105.6Z"/><path class="cls-6" d="M73.55,114.38c-26.25,0-51,.06-72.73.15v2.34c21.73.09,46.48.15,72.73.15,86.5,0,156.63-.59,156.63-1.32S160.05,114.38,73.55,114.38Z"/><path class="cls-6" d="M749.82,121.53c-57-.34-143.1-.56-239.51-.56-171.48,0-310.49.69-310.49,1.54s139,1.54,310.49,1.54c96.41,0,182.56-.22,239.51-.56Z"/><path class="cls-6" d="M132.2,128c-50.37,0-96.36.13-131.38.33v2c35,.2,81,.33,131.38.33,109.75,0,198.71-.59,198.71-1.32S242,128,132.2,128Z"/><ellipse class="cls-6" cx="430.27" cy="135.69" rx="316.01" ry="1.1"/><path class="cls-6" d="M749.82,128.64c-40.15-.12-95.84-.2-157.41-.2-122.32,0-221.48.3-221.48.66s99.16.66,221.48.66c61.57,0,117.26-.07,157.41-.2Z"/><path class="cls-6" d="M265.37,145.14c-109.09,0-205.61.29-264.55.73v2c58.94.44,155.46.73,264.55.73,179.48,0,325-.78,325-1.76S444.85,145.14,265.37,145.14Z"/><path class="cls-6" d="M1.11,136.35H.82V139h.29c38.1,0,69-.59,69-1.32S39.21,136.35,1.11,136.35Z"/><path class="cls-6" d="M749.82,141.89c-13-.17-29.87-.27-48.39-.27-40.77,0-73.83.49-73.83,1.1s33.06,1.1,73.83,1.1c18.52,0,35.43-.1,48.39-.27Z"/><path class="cls-6" d="M212.24,154.8c0,.73,119.86,1.32,267.71,1.32s267.71-.59,267.71-1.32S627.8,153.49,480,153.49,212.24,154.08,212.24,154.8Z"/><path class="cls-6" d="M64.58,155.68c-23.65,0-45.61.07-63.76.19v1.82c18.15.12,40.11.19,63.76.19,62.5,0,113.16-.49,113.16-1.1S127.08,155.68,64.58,155.68Z"/><ellipse class="cls-6" cx="341.95" cy="161.61" rx="242.87" ry="1.43"/><path class="cls-6" d="M.82,162.72v1.74c33.76-.07,59.62-.43,59.62-.87S34.58,162.79.82,162.72Z"/><path class="cls-6" d="M749.82,161.09c-14.6-.09-31-.14-48.39-.14-60.59,0-109.71.59-109.71,1.32s49.12,1.32,109.71,1.32c17.37,0,33.79-.05,48.39-.13Z"/><path class="cls-6" d="M749.82,169.09c-54-.4-144.24-.67-246.41-.67C338,168.42,204,169.11,204,170S338,171.5,503.41,171.5c102.17,0,192.37-.26,246.41-.66Z"/><path class="cls-6" d="M50.09,170.62c-17.4,0-34,0-49.27,0v1.22c15.24,0,31.87.05,49.27.05,73.55,0,133.17-.3,133.17-.66S123.64,170.62,50.09,170.62Z"/><path class="cls-6" d="M210.86,264.19c-84.44,0-159.92.13-210,.32v1.12c50.12.2,125.6.32,210,.32,150.9,0,273.23-.39,273.23-.88S361.76,264.19,210.86,264.19Z"/><path class="cls-6" d="M749.82,272.64c-43.68-.32-123.77-.54-215.36-.54-138.33,0-250.46.49-250.46,1.1s112.13,1.1,250.46,1.1c91.59,0,171.68-.22,215.36-.54Z"/><path class="cls-6" d="M234.32,287.48c-106.66,0-197.69.35-233.5.85v.94c35.81.49,126.84.84,233.5.84,137.94,0,249.77-.59,249.77-1.31S372.26,287.48,234.32,287.48Z"/><path class="cls-6" d="M79.07,273.42c-34.68,0-64.56.26-78.25.64V275c13.69.38,43.57.64,78.25.64,47.64,0,86.25-.5,86.25-1.1S126.71,273.42,79.07,273.42Z"/><path class="cls-6" d="M658,281.33c0-.73-123.87-1.32-276.68-1.32s-276.68.59-276.68,1.32,123.88,1.32,276.68,1.32S658,282.06,658,281.33Z"/><path class="cls-6" d="M749.82,281.34h-8.37c-32.39,0-58.65.59-58.65,1.32S709.06,284,741.45,284h8.37Z"/><path class="cls-6" d="M749.82,290.33c-24.62-.14-54-.22-85.65-.22-86.5,0-156.62.6-156.62,1.32s70.12,1.32,156.62,1.32c31.61,0,61-.08,85.65-.21Z"/><path class="cls-6" d="M227.42,296.71c-89.4,0-169.95.18-226.6.48v2.1c56.65.3,137.2.49,226.6.49,171.48,0,310.49-.69,310.49-1.54S398.9,296.71,227.42,296.71Z"/><path class="cls-6" d="M749.82,304.15c-36.22-.26-87.47-.41-144.3-.41-109.74,0-198.71.59-198.71,1.31s89,1.32,198.71,1.32c56.83,0,108.08-.16,144.3-.41Z"/><path class="cls-6" d="M307.45,310.33c-148.1,0-272.39.35-306.63.83v.53c34.24.48,158.53.83,306.63.83,174.53,0,316-.49,316-1.1S482,310.33,307.45,310.33Z"/><path class="cls-6" d="M145.31,304.17c-55.21,0-105.71.06-144.49.16v1c38.78.1,89.28.16,144.49.16,122.32,0,221.48-.29,221.48-.66S267.63,304.17,145.31,304.17Z"/><path class="cls-6" d="M749.82,321.71c-57.1-.5-160-.84-277.46-.84-179.48,0-325,.79-325,1.76s145.5,1.75,325,1.75c117.46,0,220.36-.33,277.46-.84Z"/><path class="cls-6" d="M749.82,312.11c-4.28,0-8.69,0-13.2,0-38.11,0-69,.59-69,1.32s30.89,1.32,69,1.32c4.51,0,8.92,0,13.2,0Z"/><path class="cls-6" d="M36.29,317.36c-12.86,0-24.94,0-35.47.13v1.93c10.53.08,22.61.13,35.47.13,40.78,0,73.83-.49,73.83-1.1S77.07,317.36,36.29,317.36Z"/><path class="cls-6" d="M257.78,329.22c-121.71,0-224.44.4-257,.95v.74c32.52.54,135.25.94,257,.94,147.85,0,267.71-.59,267.71-1.31S405.63,329.22,257.78,329.22Z"/><path class="cls-6" d="M749.82,331.71c-20.17-.19-47.09-.3-76.68-.3-62.49,0-113.16.5-113.16,1.1s50.67,1.1,113.16,1.1c29.59,0,56.51-.11,76.68-.29Z"/><ellipse class="cls-6" cx="395.77" cy="337.35" rx="242.87" ry="1.43"/><path class="cls-6" d="M749.82,338.44h-2.16c-38.87,0-70.38.4-70.38.88s31.51.88,70.38.88h2.16Z"/><path class="cls-6" d="M36.29,336.69c-12.41,0-24.34,0-35.47.07v2.49c11.13.05,23.06.07,35.47.07,60.59,0,109.71-.59,109.71-1.32S96.88,336.69,36.29,336.69Z"/><path class="cls-6" d="M234.32,344.16c-94.42,0-178.62.22-233.5.57v1.93c54.88.35,139.08.57,233.5.57,165.38,0,299.45-.69,299.45-1.54S399.7,344.16,234.32,344.16Z"/><path class="cls-6" d="M749.82,346.43c-18.57-.05-39.73-.08-62.19-.08-73.55,0-133.17.3-133.17.66s59.62.66,133.17.66c22.46,0,43.62,0,62.19-.08Z"/><path class="cls-6" d="M749.82,258.64c-49.51-.23-130.92-.37-223-.37-150.9,0-273.23.39-273.23.87S376,260,526.87,260c92,0,173.44-.14,223-.37Z"/><path class="cls-6" d="M203.27,249.92c-83.2,0-156.9.18-202.45.45v1.29c45.55.28,119.25.45,202.45.45,138.32,0,250.46-.49,250.46-1.09S341.59,249.92,203.27,249.92Z"/><path class="cls-6" d="M749.82,235.2c-19.55-.62-122.42-1.1-246.41-1.1-138,0-249.77.59-249.77,1.32s111.82,1.32,249.77,1.32c124,0,226.86-.48,246.41-1.1Z"/><ellipse class="cls-6" cx="658.65" cy="249.7" rx="86.25" ry="1.1"/><path class="cls-6" d="M79.76,242.89c-1.06.43,122.51.79,276.68,1.32,152.81.52,276.68-.59,276.68-1.32s-123.87-1.32-276.68-1.32S80.47,242.6,79.76,242.89Z"/><path class="cls-6" d="M.82,240.26v2.62c30.26,0,54.1-.62,54.1-1.31S31.08,240.31.82,240.26Z"/><path class="cls-6" d="M73.55,231.47c-26.25,0-51,.05-72.73.15V234c21.73.1,46.48.15,72.73.15,86.5,0,156.63-.59,156.63-1.32S160.05,231.47,73.55,231.47Z"/><path class="cls-6" d="M749.82,225c-57-.34-143.1-.55-239.51-.55-171.48,0-310.49.68-310.49,1.53s139,1.54,310.49,1.54c96.41,0,182.56-.22,239.51-.56Z"/><path class="cls-6" d="M132.2,217.85c-50.37,0-96.36.12-131.38.32v2c35,.21,81,.33,131.38.33,109.75,0,198.71-.59,198.71-1.32S242,217.85,132.2,217.85Z"/><ellipse class="cls-6" cx="430.27" cy="212.79" rx="316.01" ry="1.1"/><path class="cls-6" d="M749.82,218.92c-40.15-.12-95.84-.2-157.41-.2-122.32,0-221.48.3-221.48.66s99.16.66,221.48.66c61.57,0,117.26-.07,157.41-.19Z"/><path class="cls-6" d="M265.37,199.83c-109.09,0-205.61.29-264.55.74v2c58.94.45,155.46.74,264.55.74,179.48,0,325-.79,325-1.76S444.85,199.83,265.37,199.83Z"/><path class="cls-6" d="M1.11,209.5H.82v2.63h.29c38.1,0,69-.59,69-1.31S39.21,209.5,1.11,209.5Z"/><path class="cls-6" d="M749.82,204.93c-13-.16-29.87-.27-48.39-.27-40.77,0-73.83.5-73.83,1.1s33.06,1.1,73.83,1.1c18.52,0,35.43-.1,48.39-.27Z"/><path class="cls-6" d="M212.24,193.68c0-.73,119.86-1.32,267.71-1.32s267.71.59,267.71,1.32S627.8,195,480,195,212.24,194.41,212.24,193.68Z"/><path class="cls-6" d="M64.58,190.6c-23.65,0-45.61.08-63.76.2v1.81c18.15.12,40.11.19,63.76.19,62.5,0,113.16-.49,113.16-1.1S127.08,190.6,64.58,190.6Z"/><ellipse class="cls-6" cx="341.95" cy="186.87" rx="242.87" ry="1.43"/><path class="cls-6" d="M.82,184v1.74c33.76-.06,59.62-.43,59.62-.87S34.58,184.09.82,184Z"/><path class="cls-6" d="M749.82,185c-14.6-.09-31-.14-48.39-.14-60.59,0-109.71.59-109.71,1.32s49.12,1.32,109.71,1.32c17.37,0,33.79-.05,48.39-.14Z"/><path class="cls-6" d="M749.82,177.65c-54-.4-144.24-.67-246.41-.67C338,177,204,177.67,204,178.52s134.07,1.54,299.45,1.54c102.17,0,192.37-.26,246.41-.66Z"/><path class="cls-6" d="M50.09,176.55c-17.4,0-34,0-49.27,0v1.23c15.24,0,31.87,0,49.27,0,73.55,0,133.17-.29,133.17-.66S123.64,176.55,50.09,176.55Z"/><rect class="cls-7" x="238.87" y="55.56" width="237.29" height="161.35" transform="translate(-8.05 23.37) rotate(-3.7)"/><polygon class="cls-8" points="468.62 212.07 245.29 226.53 235.82 70.25 458.84 61.05 468.62 212.07"/><rect class="cls-2" x="229.67" y="72.11" width="223.79" height="151.35" transform="translate(-8.83 22.37) rotate(-3.7)"/><rect class="cls-7" x="208.87" y="71.56" width="237.29" height="161.35" transform="translate(-2.52 5.55) rotate(-0.97)"/><polygon class="cls-8" points="447.5 230.89 224.9 233.51 221.19 83.35 444.94 79.57 447.5 230.89"/><rect class="cls-9" x="228.01" y="86.2" width="237.29" height="161.35"/><rect class="cls-7" x="226.37" y="84.56" width="237.29" height="161.35"/><path class="cls-9" d="M390.64,121.13c-.17-.28-.34-.57-.5-.86-.94.26-1.65.56-2.58.82a1.46,1.46,0,0,1,.36-1c.08-.12.3-.58.16-.64a15.83,15.83,0,0,1-2.42,2.28l-.22-.34L384,122a11.72,11.72,0,0,0-2.55-1.53,23.6,23.6,0,0,0-8.1-2.73l0,.5a23.08,23.08,0,0,1,7.92,2.68,12.67,12.67,0,0,1,2.26,1.3l-5,2.29a1,1,0,0,1-.42.12,1.17,1.17,0,0,1-.66-.25,23,23,0,0,0-4.76-2.25c0-.07,0-.15,0-.22-1.42-.4-2.6-.73-3.75-1-.06-.16-.13-.32-.18-.49a4.94,4.94,0,0,0,.3-.49,2,2,0,0,0,.18-1.35,2.17,2.17,0,0,0-.71-1.06,2.46,2.46,0,0,0-.62-.45,2.31,2.31,0,0,0-.62-.18l-.52-.22a1.87,1.87,0,0,1-1-.94,3.31,3.31,0,0,0,0,.77,1.31,1.31,0,0,1-.51-.56,2.9,2.9,0,0,0,.22,1.78,1.74,1.74,0,0,0,.3.36A2.48,2.48,0,0,0,366,120a1.46,1.46,0,0,1-.12.51c-.73-.07-1.5-.11-2.35-.12a2.6,2.6,0,0,0-1.14.14,7.17,7.17,0,0,0-2.35,1.72,41.87,41.87,0,0,1-4.85,4,69.34,69.34,0,0,0,4.81,6.49,70.25,70.25,0,0,1-2.42,7.12h17.69Q374,132.45,373,125a49.43,49.43,0,0,1,5.56,2.74q4.26-2,8.66-3.6l-.62-1a10.23,10.23,0,0,1,1.08-.2,3.27,3.27,0,0,0,.95-.19,3.22,3.22,0,0,0,.58-.38l1.39-1.08a.18.18,0,0,0,.07-.08A.18.18,0,0,0,390.64,121.13Zm-29.87,8.74a27.68,27.68,0,0,1-1.52-2.75c.77-.49,1.77-1.13,2.7-1.82C361.56,126.83,361.17,128.35,360.77,129.87Z"/><path class="cls-9" d="M385.18,119.9a10.74,10.74,0,0,0-4.9-2.22l-.08.5a10.14,10.14,0,0,1,4.67,2.11Z"/><path class="cls-9" d="M325.23,128.78l-.57.26-.15.08a2,2,0,0,0-.64.94,1.77,1.77,0,0,1-.26.41,1.24,1.24,0,0,1-.27.17l-.07-.22-6.48,1.94c-.65-1.37-1-2.87-1.5-4.28a7.92,7.92,0,0,0-.42-.94,4.6,4.6,0,0,0,0-1,2.64,2.64,0,0,0-1-1.92c.07-.2.14-.4.22-.6h.08a3.37,3.37,0,0,0,2.62-1,2.88,2.88,0,0,0,.44-1.25,12,12,0,0,0,.15-1.9,2.48,2.48,0,0,0,1.41-1,6.88,6.88,0,0,1-1.2,0,7.34,7.34,0,0,0,2.6-1l-3.86-.07a2,2,0,0,0-.78-.21,3.08,3.08,0,0,0-1.92.66,5.72,5.72,0,0,0-.46.4H300.94v.5h11.8a5.44,5.44,0,0,0-1.1,3.31h-7v.5h6.72a14.43,14.43,0,0,1-1.16,1.62q-.33.11-.66.24a27.65,27.65,0,0,0-8,1.31,2.25,2.25,0,0,0-.59.26,2.14,2.14,0,0,0-.69,1.1,17.6,17.6,0,0,0-.53,1.79h-2v.5h1.89a18.5,18.5,0,0,0-.41,3.56h-4.11v.5h4.1c0,.55,0,1.09.1,1.63l-1,1.13.83.18a2.52,2.52,0,0,0-.21.71c-.1.47-.19.94-.29,1.41a2.43,2.43,0,0,0-.05.6,1.68,1.68,0,0,0,.22.56l.69,1.38,1,.08,8.08,0a19.67,19.67,0,0,1-.49-3.33c.72-1.81,2.39-3.64,3.88-5.43.74,1,1.47,1.95,2.24,2.9a.66.66,0,0,0,.22.22.83.83,0,0,0,.6,0c3-1,5.89-2.07,8.8-3.19-.06-.17-.11-.34-.17-.51a9.49,9.49,0,0,1,1.19-.18.64.64,0,0,0,.27-.07.58.58,0,0,0,.13-.14l.68-.92C325.71,130,325.46,129.37,325.23,128.78Zm-23,3a21.56,21.56,0,0,1,.67-2.63,18.3,18.3,0,0,1,1.95-.43Z"/><path class="cls-9" d="M263.69,133.81A9.49,9.49,0,0,0,262,132.5a1.26,1.26,0,0,0-.35-.7,2,2,0,0,0-.62-.37l-4.82-2.1-.22-2.14a17.72,17.72,0,0,0,1.07-6.52,6.83,6.83,0,0,0,1.74-2.92l-1.49,1a4.51,4.51,0,0,0,1.16-1.87,11.89,11.89,0,0,1-2.65,1.37,3.25,3.25,0,0,0-1.58,0,6.18,6.18,0,0,0-2.44,1.19,1.62,1.62,0,0,0-.54.65,1.58,1.58,0,0,0-.09.72,12.68,12.68,0,0,0,1.91,6.36,22.21,22.21,0,0,1-.32,2.94L248.29,132a2.08,2.08,0,0,0-.7.42,1.2,1.2,0,0,0-.29.5,5.82,5.82,0,0,0-1.67,2.09,19.35,19.35,0,0,0-1.76,4.95H262.1c-.09-.82-.15-1.65-.18-2.48,1.21.81,2.47,1.56,3.59,2.48h4.22A73.53,73.53,0,0,0,263.69,133.81Z"/><path class="cls-9" d="M269.63,117.46,268.42,116c-1.55,1.64-3.16,3.22-4.81,4.76q2.72-1.59,5.55-2.94A.91.91,0,0,0,269.63,117.46Z"/><path class="cls-9" d="M270.56,124.77a16.81,16.81,0,0,0-.2-2.35c-2.17.41-4.34.87-6.49,1.37A53.66,53.66,0,0,1,270.56,124.77Z"/><path class="cls-9" d="M267.23,128.86q-1.62-1.22-3.18-2.49l1.7,3.64A7.17,7.17,0,0,1,267.23,128.86Z"/><rect class="cls-9" x="236.82" y="101.66" width="49.13" height="6.75"/><path class="cls-2" d="M287,144.61H235.77V111.16H287Zm-49.24-2H285V113.16H237.77Z"/><path class="cls-9" d="M295.4,105.92a.71.71,0,0,0-.16-.48,1.34,1.34,0,0,0-.58-.32,2.37,2.37,0,0,1-.9-.47,1,1,0,0,1-.32-.76,1,1,0,0,1,.35-.8,1.32,1.32,0,0,1,.9-.32,1.25,1.25,0,0,1,.93.37,1.21,1.21,0,0,1,.34.87v0h-.55a.87.87,0,0,0-.19-.59.73.73,0,0,0-1,0,.72.72,0,0,0-.17.48.58.58,0,0,0,.19.45,1.67,1.67,0,0,0,.62.32,2,2,0,0,1,.85.48,1.09,1.09,0,0,1,.3.79,1,1,0,0,1-.35.81,1.41,1.41,0,0,1-.92.29,1.54,1.54,0,0,1-1-.32,1.07,1.07,0,0,1-.4-.93h.56a.78.78,0,0,0,.22.62.81.81,0,0,0,.58.21.69.69,0,0,0,.51-.18A.66.66,0,0,0,295.4,105.92Z"/><path class="cls-9" d="M297.59,106.59a.48.48,0,0,0,.37-.17.63.63,0,0,0,.14-.44h.52v0a1,1,0,0,1-.3.73,1,1,0,0,1-.74.29,1,1,0,0,1-.87-.38,1.52,1.52,0,0,1-.31-1v-.43a1.52,1.52,0,0,1,.31-1,1,1,0,0,1,.87-.39,1,1,0,0,1,.76.31,1.13,1.13,0,0,1,.28.8v0h-.52a.78.78,0,0,0-.14-.5.42.42,0,0,0-.37-.19.5.5,0,0,0-.47.26,1.53,1.53,0,0,0-.13.68v.42a1.47,1.47,0,0,0,.13.68A.49.49,0,0,0,297.59,106.59Z"/><path class="cls-9" d="M300.25,107a1.08,1.08,0,0,1-.88-.38,1.41,1.41,0,0,1-.33-1v-.45a1.48,1.48,0,0,1,.33-1,1.07,1.07,0,0,1,1.62,0,1.56,1.56,0,0,1,.28,1v.4h-1.65v.12a1.12,1.12,0,0,0,.17.66.57.57,0,0,0,.5.26,1,1,0,0,0,.4-.08,1,1,0,0,0,.33-.22l.18.36a1.13,1.13,0,0,1-.39.27A1.4,1.4,0,0,1,300.25,107Zm-.07-2.74a.46.46,0,0,0-.4.24,1.26,1.26,0,0,0-.16.62h1.08V105a1.08,1.08,0,0,0-.13-.54A.43.43,0,0,0,300.18,104.28Z"/><path class="cls-9" d="M302.3,103.9l0,.45a1,1,0,0,1,.33-.38.74.74,0,0,1,.44-.13.71.71,0,0,1,.62.3,1.52,1.52,0,0,1,.23.92V107h-.58v-1.89a1.14,1.14,0,0,0-.12-.61.43.43,0,0,0-.37-.17.44.44,0,0,0-.31.11.82.82,0,0,0-.22.29V107h-.58V103.9Z"/><path class="cls-9" d="M305.71,107a1.1,1.1,0,0,1-.88-.38,1.46,1.46,0,0,1-.33-1v-.45a1.48,1.48,0,0,1,.33-1,1,1,0,0,1,.82-.39,1,1,0,0,1,.8.35,1.5,1.5,0,0,1,.28,1v.4h-1.65v.12a1.2,1.2,0,0,0,.17.66.57.57,0,0,0,.5.26,1,1,0,0,0,.41-.08,1.08,1.08,0,0,0,.32-.22l.18.36a1,1,0,0,1-.39.27A1.4,1.4,0,0,1,305.71,107Zm-.06-2.74a.45.45,0,0,0-.4.24,1.26,1.26,0,0,0-.17.62h1.08V105a1,1,0,0,0-.13-.54A.42.42,0,0,0,305.65,104.28Z"/><rect class="cls-2" x="236.07" y="153.48" width="50.64" height="1"/><rect class="cls-2" x="236.07" y="158.12" width="50.64" height="1"/><rect class="cls-9" x="292.24" y="101.66" width="49.79" height="6.75"/><path class="cls-2" d="M342.75,144.61H291.52V111.16h51.23Zm-49.23-2h47.23V113.16H293.52Z"/><rect class="cls-2" x="291.82" y="153.48" width="50.64" height="1"/><rect class="cls-2" x="291.82" y="158.12" width="50.64" height="1"/><rect class="cls-9" x="348.32" y="101.66" width="49.13" height="6.75"/><path class="cls-2" d="M398.5,144.61H347.27V111.16H398.5Zm-49.23-2H396.5V113.16H349.27Z"/><rect class="cls-2" x="347.56" y="153.48" width="50.64" height="1"/><rect class="cls-2" x="347.56" y="158.12" width="50.64" height="1"/><rect class="cls-9" x="403.41" y="101.66" width="50.45" height="6.75"/><path class="cls-2" d="M454.25,144.61H403V111.16h51.24Zm-49.24-2h47.24V113.16H405Z"/><rect class="cls-2" x="403.31" y="153.48" width="50.64" height="1"/><rect class="cls-2" x="403.31" y="158.12" width="50.64" height="1"/><rect class="cls-9" x="236.82" y="170.57" width="49.13" height="6.75"/><path class="cls-2" d="M287,213.52H235.77V180.07H287Zm-49.24-2H285V182.07H237.77Z"/><rect class="cls-2" x="236.07" y="222.39" width="50.64" height="1"/><rect class="cls-2" x="236.07" y="227.03" width="50.64" height="1"/><rect class="cls-9" x="292.24" y="170.57" width="49.79" height="6.75"/><path class="cls-2" d="M342.75,213.52H291.52V180.07h51.23Zm-49.23-2h47.23V182.07H293.52Z"/><rect class="cls-2" x="291.82" y="222.39" width="50.64" height="1"/><rect class="cls-2" x="291.82" y="227.03" width="50.64" height="1"/><rect class="cls-9" x="348.32" y="170.57" width="49.13" height="6.75"/><path class="cls-2" d="M398.5,213.52H347.27V180.07H398.5Zm-49.23-2H396.5V182.07H349.27Z"/><rect class="cls-2" x="347.56" y="222.39" width="50.64" height="1"/><rect class="cls-2" x="347.56" y="227.03" width="50.64" height="1"/><rect class="cls-9" x="403.41" y="170.57" width="50.45" height="6.75"/><path class="cls-2" d="M454.25,213.52H403V180.07h51.24Zm-49.24-2h47.24V182.07H405Z"/><rect class="cls-2" x="403.31" y="222.39" width="50.64" height="1"/><rect class="cls-2" x="403.31" y="227.03" width="50.64" height="1"/><path class="cls-7" d="M239.52,105.92a.72.72,0,0,0-.17-.48,1.36,1.36,0,0,0-.57-.32,2.35,2.35,0,0,1-.91-.47,1,1,0,0,1-.31-.76,1,1,0,0,1,.35-.8,1.29,1.29,0,0,1,.9-.32,1.23,1.23,0,0,1,.92.37,1.17,1.17,0,0,1,.34.87v0h-.55a.92.92,0,0,0-.18-.59.66.66,0,0,0-.53-.23.61.61,0,0,0-.49.19.68.68,0,0,0-.18.48.62.62,0,0,0,.19.45,1.67,1.67,0,0,0,.62.32,2.13,2.13,0,0,1,.86.48,1.13,1.13,0,0,1,.29.79,1,1,0,0,1-.35.81,1.38,1.38,0,0,1-.91.29,1.57,1.57,0,0,1-1-.32,1.1,1.1,0,0,1-.4-.93H238a.82.82,0,0,0,.22.62.84.84,0,0,0,.59.21.68.68,0,0,0,.5-.18A.63.63,0,0,0,239.52,105.92Z"/><path class="cls-7" d="M241.71,106.59a.48.48,0,0,0,.36-.17.63.63,0,0,0,.15-.44h.52v0a1,1,0,0,1-.29.73,1,1,0,0,1-.74.29,1,1,0,0,1-.88-.38,1.58,1.58,0,0,1-.31-1v-.43a1.58,1.58,0,0,1,.31-1,1.05,1.05,0,0,1,.88-.39,1,1,0,0,1,.75.31,1,1,0,0,1,.28.8v0h-.52a.85.85,0,0,0-.14-.5.43.43,0,0,0-.37-.19.49.49,0,0,0-.47.26,1.52,1.52,0,0,0-.14.68v.42a1.46,1.46,0,0,0,.14.68A.48.48,0,0,0,241.71,106.59Z"/><path class="cls-7" d="M244.36,107a1.08,1.08,0,0,1-.87-.38,1.41,1.41,0,0,1-.33-1v-.45a1.47,1.47,0,0,1,.32-1,1,1,0,0,1,.82-.39,1,1,0,0,1,.8.35,1.5,1.5,0,0,1,.28,1v.4h-1.65v.12a1.12,1.12,0,0,0,.18.66.56.56,0,0,0,.49.26,1,1,0,0,0,.41-.08,1.08,1.08,0,0,0,.32-.22l.18.36a1,1,0,0,1-.39.27A1.37,1.37,0,0,1,244.36,107Zm-.06-2.74a.45.45,0,0,0-.4.24,1.26,1.26,0,0,0-.17.62h1.08V105a1,1,0,0,0-.13-.54A.41.41,0,0,0,244.3,104.28Z"/><path class="cls-7" d="M246.41,103.9l0,.45a1,1,0,0,1,.32-.38.76.76,0,0,1,.44-.13.74.74,0,0,1,.63.3,1.52,1.52,0,0,1,.22.92V107h-.57v-1.89a1.14,1.14,0,0,0-.12-.61.45.45,0,0,0-.37-.17.46.46,0,0,0-.32.11.82.82,0,0,0-.22.29V107h-.57V103.9Z"/><path class="cls-7" d="M249.83,107a1.08,1.08,0,0,1-.88-.38,1.41,1.41,0,0,1-.33-1v-.45a1.53,1.53,0,0,1,.32-1,1,1,0,0,1,.82-.39,1,1,0,0,1,.8.35,1.5,1.5,0,0,1,.28,1v.4h-1.65v.12a1.12,1.12,0,0,0,.18.66.56.56,0,0,0,.49.26,1,1,0,0,0,.41-.08,1.08,1.08,0,0,0,.32-.22l.19.36a1.13,1.13,0,0,1-.39.27A1.43,1.43,0,0,1,249.83,107Zm-.07-2.74a.45.45,0,0,0-.4.24,1.26,1.26,0,0,0-.17.62h1.08V105a1,1,0,0,0-.13-.54A.4.4,0,0,0,249.76,104.28Z"/><path class="cls-9" d="M238.2,93.51v1.64h-.57V91H239a1.19,1.19,0,0,1,.91.34,1.41,1.41,0,0,1,0,1.81,1.19,1.19,0,0,1-.91.34Zm0-.43H239a.59.59,0,0,0,.5-.23,1,1,0,0,0,.16-.58,1,1,0,0,0-.16-.58.57.57,0,0,0-.5-.24h-.78Z"/><path class="cls-9" d="M242.09,92.56h-.27a.4.4,0,0,0-.29.11.64.64,0,0,0-.18.3v2.19h-.58V92.08h.52l.05.46a1,1,0,0,1,.25-.38A.52.52,0,0,1,242,92h.12l.09,0Z"/><path class="cls-9" d="M242.39,93.42a1.58,1.58,0,0,1,.32-1,1.09,1.09,0,0,1,.88-.39,1.06,1.06,0,0,1,.87.39,1.53,1.53,0,0,1,.32,1v.39a1.51,1.51,0,0,1-.32,1,1.06,1.06,0,0,1-.87.39,1.09,1.09,0,0,1-.88-.39,1.57,1.57,0,0,1-.32-1Zm.58.39a1.41,1.41,0,0,0,.15.69.51.51,0,0,0,.47.27.49.49,0,0,0,.46-.27,1.31,1.31,0,0,0,.16-.69v-.39a1.31,1.31,0,0,0-.16-.69.5.5,0,0,0-.46-.27.51.51,0,0,0-.47.27,1.41,1.41,0,0,0-.15.69Z"/><path class="cls-9" d="M246,92.08v3.28a1.15,1.15,0,0,1-.23.76.74.74,0,0,1-.62.27H245l-.15,0,0-.44.11,0,.1,0a.27.27,0,0,0,.24-.15.81.81,0,0,0,.09-.43V92.08Zm0-.81h-.58v-.55H246Z"/><path class="cls-9" d="M247.77,95.21a1.11,1.11,0,0,1-.88-.38,1.45,1.45,0,0,1-.33-1v-.44a1.54,1.54,0,0,1,.32-1,1,1,0,0,1,.82-.39.94.94,0,0,1,.8.36,1.45,1.45,0,0,1,.28,1v.4h-1.65v.12a1.12,1.12,0,0,0,.18.66.56.56,0,0,0,.49.26,1,1,0,0,0,.41-.07,1.31,1.31,0,0,0,.32-.22l.19.35a1.13,1.13,0,0,1-.39.27A1.43,1.43,0,0,1,247.77,95.21Zm-.07-2.75a.45.45,0,0,0-.4.24,1.26,1.26,0,0,0-.17.62h1.08V93.2a1,1,0,0,0-.13-.53A.41.41,0,0,0,247.7,92.46Z"/><path class="cls-9" d="M250.36,94.77a.48.48,0,0,0,.36-.17.62.62,0,0,0,.15-.44h.52v0a.94.94,0,0,1-.29.73,1,1,0,0,1-.74.3,1.06,1.06,0,0,1-.88-.39,1.58,1.58,0,0,1-.3-1v-.42a1.59,1.59,0,0,1,.3-1,1.06,1.06,0,0,1,.88-.39,1,1,0,0,1,.75.31,1.12,1.12,0,0,1,.29.81h-.53a.87.87,0,0,0-.14-.5.43.43,0,0,0-.37-.19.49.49,0,0,0-.47.26,1.52,1.52,0,0,0-.14.68v.43a1.52,1.52,0,0,0,.14.68A.49.49,0,0,0,250.36,94.77Z"/><path class="cls-9" d="M252.64,91.31v.77h.48v.41h-.48v1.83a.69.69,0,0,0,.07.34.24.24,0,0,0,.19.1H253l.14,0,.06.4a.71.71,0,0,1-.22.06,1,1,0,0,1-.24,0,.61.61,0,0,1-.51-.22,1,1,0,0,1-.18-.67V92.49h-.4v-.41h.4v-.77Z"/><path class="cls-9" d="M257.76,95.15h-.58l-1.56-3.07h0v3.07H255V91h.57l1.57,3.06h0V91h.58Z"/><path class="cls-9" d="M260.05,95.15c0-.07,0-.14-.05-.21a1.23,1.23,0,0,1,0-.2,1.16,1.16,0,0,1-.32.34.8.8,0,0,1-.43.13.76.76,0,0,1-.61-.25.92.92,0,0,1-.22-.66.86.86,0,0,1,.3-.69,1.31,1.31,0,0,1,.84-.25H260v-.31a.66.66,0,0,0-.13-.44.43.43,0,0,0-.35-.15.39.39,0,0,0-.33.14A.48.48,0,0,0,259,93h-.55v0a.78.78,0,0,1,.29-.63,1.06,1.06,0,0,1,.77-.28,1,1,0,0,1,.73.27,1,1,0,0,1,.28.76v1.43a1.87,1.87,0,0,0,0,.34,1.3,1.3,0,0,0,.07.33Zm-.69-.38a.63.63,0,0,0,.37-.12.7.7,0,0,0,.24-.3v-.63h-.44a.53.53,0,0,0-.41.17.64.64,0,0,0-.14.42.5.5,0,0,0,.1.33A.32.32,0,0,0,259.36,94.77Z"/><path class="cls-9" d="M261.73,92.08l0,.42a.94.94,0,0,1,.32-.36.79.79,0,0,1,.45-.12.71.71,0,0,1,.43.14.92.92,0,0,1,.28.43,1,1,0,0,1,.31-.42A.78.78,0,0,1,264,92a.72.72,0,0,1,.62.32,1.73,1.73,0,0,1,.23,1v1.83h-.58V93.32a1.33,1.33,0,0,0-.12-.66.36.36,0,0,0-.34-.19.43.43,0,0,0-.33.15.89.89,0,0,0-.19.39v.08a.78.78,0,0,1,0,.13v1.93h-.57V93.32a1.31,1.31,0,0,0-.12-.65.39.39,0,0,0-.35-.2.48.48,0,0,0-.31.1.75.75,0,0,0-.2.28v2.3h-.57V92.08Z"/><path class="cls-9" d="M266.64,95.21a1.11,1.11,0,0,1-.88-.38,1.45,1.45,0,0,1-.33-1v-.44a1.54,1.54,0,0,1,.32-1,1,1,0,0,1,.82-.39.94.94,0,0,1,.8.36,1.46,1.46,0,0,1,.29,1v.4H266v.12a1.12,1.12,0,0,0,.18.66.56.56,0,0,0,.49.26,1,1,0,0,0,.41-.07,1.36,1.36,0,0,0,.33-.22l.18.35a1.13,1.13,0,0,1-.39.27A1.4,1.4,0,0,1,266.64,95.21Zm-.07-2.75a.46.46,0,0,0-.4.24,1.38,1.38,0,0,0-.17.62h1.09V93.2a1,1,0,0,0-.14-.53A.41.41,0,0,0,266.57,92.46Z"/><path class="cls-7" d="M295.4,105.92a.71.71,0,0,0-.16-.48,1.34,1.34,0,0,0-.58-.32,2.37,2.37,0,0,1-.9-.47,1,1,0,0,1-.32-.76,1,1,0,0,1,.35-.8,1.33,1.33,0,0,1,.91-.32,1.23,1.23,0,0,1,.92.37,1.17,1.17,0,0,1,.34.87v0h-.55a.87.87,0,0,0-.19-.59.64.64,0,0,0-.52-.23.65.65,0,0,0-.5.19.72.72,0,0,0-.17.48.58.58,0,0,0,.19.45,1.67,1.67,0,0,0,.62.32,2.13,2.13,0,0,1,.86.48,1.13,1.13,0,0,1,.29.79,1,1,0,0,1-.35.81,1.41,1.41,0,0,1-.92.29,1.54,1.54,0,0,1-1-.32,1.07,1.07,0,0,1-.4-.93h.56a.78.78,0,0,0,.22.62.81.81,0,0,0,.58.21.69.69,0,0,0,.51-.18A.66.66,0,0,0,295.4,105.92Z"/><path class="cls-7" d="M297.59,106.59a.48.48,0,0,0,.37-.17.63.63,0,0,0,.15-.44h.51v0a1,1,0,0,1-.3.73,1,1,0,0,1-.74.29,1,1,0,0,1-.87-.38,1.52,1.52,0,0,1-.31-1v-.43a1.52,1.52,0,0,1,.31-1,1,1,0,0,1,.87-.39,1,1,0,0,1,.76.31,1.09,1.09,0,0,1,.28.8v0h-.51a.78.78,0,0,0-.15-.5.42.42,0,0,0-.37-.19.48.48,0,0,0-.46.26,1.4,1.4,0,0,0-.14.68v.42a1.35,1.35,0,0,0,.14.68A.47.47,0,0,0,297.59,106.59Z"/><path class="cls-7" d="M300.25,107a1.08,1.08,0,0,1-.88-.38,1.41,1.41,0,0,1-.33-1v-.45a1.48,1.48,0,0,1,.33-1,1.07,1.07,0,0,1,1.62,0,1.56,1.56,0,0,1,.28,1v.4h-1.65v.12a1.2,1.2,0,0,0,.17.66.57.57,0,0,0,.5.26,1,1,0,0,0,.41-.08,1.08,1.08,0,0,0,.32-.22l.18.36a1.13,1.13,0,0,1-.39.27A1.4,1.4,0,0,1,300.25,107Zm-.07-2.74a.46.46,0,0,0-.4.24,1.26,1.26,0,0,0-.16.62h1.08V105a1.08,1.08,0,0,0-.13-.54A.43.43,0,0,0,300.18,104.28Z"/><path class="cls-7" d="M302.3,103.9l0,.45a1.12,1.12,0,0,1,.33-.38.81.81,0,0,1,1.07.17,1.52,1.52,0,0,1,.22.92V107h-.58v-1.89a1.14,1.14,0,0,0-.12-.61.43.43,0,0,0-.37-.17.45.45,0,0,0-.31.11.82.82,0,0,0-.22.29V107h-.58V103.9Z"/><path class="cls-7" d="M305.71,107a1.06,1.06,0,0,1-.87-.38,1.41,1.41,0,0,1-.33-1v-.45a1.47,1.47,0,0,1,.32-1,1,1,0,0,1,.82-.39,1,1,0,0,1,.8.35,1.5,1.5,0,0,1,.28,1v.4h-1.65v.12a1.2,1.2,0,0,0,.17.66.59.59,0,0,0,.5.26,1,1,0,0,0,.41-.08,1.08,1.08,0,0,0,.32-.22l.18.36a1,1,0,0,1-.39.27A1.4,1.4,0,0,1,305.71,107Zm-.06-2.74a.45.45,0,0,0-.4.24,1.26,1.26,0,0,0-.17.62h1.08V105a1,1,0,0,0-.13-.54A.42.42,0,0,0,305.65,104.28Z"/><path class="cls-7" d="M351.29,105.92a.72.72,0,0,0-.17-.48,1.29,1.29,0,0,0-.57-.32,2.42,2.42,0,0,1-.91-.47,1,1,0,0,1-.31-.76,1,1,0,0,1,.35-.8,1.29,1.29,0,0,1,.9-.32,1.23,1.23,0,0,1,.92.37,1.13,1.13,0,0,1,.34.87v0h-.56a.92.92,0,0,0-.18-.59.66.66,0,0,0-.53-.23.63.63,0,0,0-.49.19.67.67,0,0,0-.17.48.61.61,0,0,0,.18.45,1.76,1.76,0,0,0,.62.32,2.07,2.07,0,0,1,.86.48,1.09,1.09,0,0,1,.3.79,1,1,0,0,1-.35.81,1.43,1.43,0,0,1-.92.29,1.57,1.57,0,0,1-1-.32,1.09,1.09,0,0,1-.39-.93h.55a.79.79,0,0,0,.23.62.79.79,0,0,0,.58.21.71.71,0,0,0,.51-.18A.66.66,0,0,0,351.29,105.92Z"/><path class="cls-7" d="M353.48,106.59a.48.48,0,0,0,.36-.17A.63.63,0,0,0,354,106h.52v0a1,1,0,0,1-.29.73,1,1,0,0,1-.74.29,1,1,0,0,1-.88-.38,1.58,1.58,0,0,1-.3-1v-.43a1.58,1.58,0,0,1,.3-1,1.05,1.05,0,0,1,.88-.39,1,1,0,0,1,.75.31,1.1,1.1,0,0,1,.29.8v0H354a.85.85,0,0,0-.14-.5.43.43,0,0,0-.37-.19.49.49,0,0,0-.47.26,1.52,1.52,0,0,0-.14.68v.42a1.46,1.46,0,0,0,.14.68A.48.48,0,0,0,353.48,106.59Z"/><path class="cls-7" d="M356.13,107a1.08,1.08,0,0,1-.87-.38,1.41,1.41,0,0,1-.33-1v-.45a1.53,1.53,0,0,1,.32-1,1,1,0,0,1,.82-.39,1,1,0,0,1,.8.35,1.5,1.5,0,0,1,.28,1v.4H355.5v.12a1.12,1.12,0,0,0,.18.66.56.56,0,0,0,.49.26,1,1,0,0,0,.41-.08,1.08,1.08,0,0,0,.32-.22l.19.36a1.13,1.13,0,0,1-.39.27A1.45,1.45,0,0,1,356.13,107Zm-.06-2.74a.45.45,0,0,0-.4.24,1.26,1.26,0,0,0-.17.62h1.08V105a1,1,0,0,0-.13-.54A.4.4,0,0,0,356.07,104.28Z"/><path class="cls-7" d="M358.19,103.9l0,.45a1,1,0,0,1,.32-.38.76.76,0,0,1,.44-.13.74.74,0,0,1,.63.3,1.52,1.52,0,0,1,.22.92V107h-.57v-1.89a1.14,1.14,0,0,0-.12-.61.45.45,0,0,0-.37-.17.44.44,0,0,0-.31.11.85.85,0,0,0-.23.29V107h-.57V103.9Z"/><path class="cls-7" d="M361.6,107a1.08,1.08,0,0,1-.88-.38,1.41,1.41,0,0,1-.33-1v-.45a1.53,1.53,0,0,1,.32-1,1,1,0,0,1,.82-.39,1,1,0,0,1,.81.35,1.56,1.56,0,0,1,.28,1v.4H361v.12a1.12,1.12,0,0,0,.18.66.57.57,0,0,0,.49.26,1,1,0,0,0,.41-.08,1.12,1.12,0,0,0,.33-.22l.18.36a1.13,1.13,0,0,1-.39.27A1.4,1.4,0,0,1,361.6,107Zm-.07-2.74a.46.46,0,0,0-.4.24,1.38,1.38,0,0,0-.17.62h1.09V105a1,1,0,0,0-.14-.54A.4.4,0,0,0,361.53,104.28Z"/><path class="cls-7" d="M407.17,105.92a.71.71,0,0,0-.16-.48,1.34,1.34,0,0,0-.58-.32,2.37,2.37,0,0,1-.9-.47,1,1,0,0,1-.32-.76,1,1,0,0,1,.36-.8,1.29,1.29,0,0,1,.9-.32,1.23,1.23,0,0,1,.92.37,1.17,1.17,0,0,1,.34.87v0h-.55a.87.87,0,0,0-.19-.59.63.63,0,0,0-.52-.23.65.65,0,0,0-.5.19.72.72,0,0,0-.17.48.58.58,0,0,0,.19.45,1.67,1.67,0,0,0,.62.32,2.13,2.13,0,0,1,.86.48,1.13,1.13,0,0,1,.29.79,1,1,0,0,1-.35.81,1.4,1.4,0,0,1-.91.29,1.55,1.55,0,0,1-1-.32,1.07,1.07,0,0,1-.4-.93h.56a.78.78,0,0,0,.22.62.84.84,0,0,0,.59.21.68.68,0,0,0,.5-.18A.66.66,0,0,0,407.17,105.92Z"/><path class="cls-7" d="M409.37,106.59a.48.48,0,0,0,.36-.17.63.63,0,0,0,.15-.44h.51v0a.93.93,0,0,1-.3.73,1,1,0,0,1-.73.29,1,1,0,0,1-.88-.38,1.52,1.52,0,0,1-.31-1v-.43a1.52,1.52,0,0,1,.31-1,1,1,0,0,1,.87-.39,1,1,0,0,1,.76.31,1.09,1.09,0,0,1,.28.8v0h-.51a.85.85,0,0,0-.14-.5.45.45,0,0,0-.38-.19.48.48,0,0,0-.46.26,1.4,1.4,0,0,0-.14.68v.42a1.35,1.35,0,0,0,.14.68A.48.48,0,0,0,409.37,106.59Z"/><path class="cls-7" d="M412,107a1.1,1.1,0,0,1-.88-.38,1.41,1.41,0,0,1-.33-1v-.45a1.48,1.48,0,0,1,.33-1,1,1,0,0,1,.82-.39,1,1,0,0,1,.8.35,1.5,1.5,0,0,1,.28,1v.4h-1.65v.12a1.2,1.2,0,0,0,.17.66.57.57,0,0,0,.5.26,1,1,0,0,0,.41-.08,1.08,1.08,0,0,0,.32-.22l.18.36a1,1,0,0,1-.39.27A1.4,1.4,0,0,1,412,107Zm-.06-2.74a.48.48,0,0,0-.41.24,1.38,1.38,0,0,0-.16.62h1.08V105a1.08,1.08,0,0,0-.13-.54A.42.42,0,0,0,412,104.28Z"/><path class="cls-7" d="M414.07,103.9l0,.45a1.12,1.12,0,0,1,.33-.38.81.81,0,0,1,1.07.17,1.52,1.52,0,0,1,.22.92V107h-.58v-1.89a1.14,1.14,0,0,0-.12-.61.43.43,0,0,0-.37-.17.45.45,0,0,0-.31.11.82.82,0,0,0-.22.29V107h-.58V103.9Z"/><path class="cls-7" d="M417.48,107a1.08,1.08,0,0,1-.87-.38,1.41,1.41,0,0,1-.33-1v-.45a1.47,1.47,0,0,1,.32-1,1,1,0,0,1,.82-.39,1,1,0,0,1,.8.35,1.5,1.5,0,0,1,.28,1v.4h-1.65v.12a1.2,1.2,0,0,0,.17.66.59.59,0,0,0,.5.26,1,1,0,0,0,.41-.08,1.08,1.08,0,0,0,.32-.22l.18.36a1,1,0,0,1-.39.27A1.4,1.4,0,0,1,417.48,107Zm-.06-2.74a.45.45,0,0,0-.4.24,1.26,1.26,0,0,0-.17.62h1.08V105a1,1,0,0,0-.13-.54A.42.42,0,0,0,417.42,104.28Z"/><path class="cls-7" d="M239.52,174.86a.69.69,0,0,0-.17-.48,1.26,1.26,0,0,0-.57-.33,2.35,2.35,0,0,1-.91-.47,1,1,0,0,1-.31-.76,1,1,0,0,1,.35-.8,1.28,1.28,0,0,1,.9-.31,1.22,1.22,0,0,1,.92.36,1.17,1.17,0,0,1,.34.87v0h-.55a.92.92,0,0,0-.18-.59.66.66,0,0,0-.53-.23.65.65,0,0,0-.49.19.68.68,0,0,0-.18.48.62.62,0,0,0,.19.45,1.67,1.67,0,0,0,.62.33,1.92,1.92,0,0,1,.86.48,1.09,1.09,0,0,1,.29.78,1,1,0,0,1-.35.81,1.33,1.33,0,0,1-.91.3,1.52,1.52,0,0,1-1-.33,1.09,1.09,0,0,1-.4-.92v0H238a.86.86,0,0,0,.22.63.88.88,0,0,0,.59.2.68.68,0,0,0,.5-.18A.62.62,0,0,0,239.52,174.86Z"/><path class="cls-7" d="M241.71,175.52a.44.44,0,0,0,.36-.17.62.62,0,0,0,.15-.44h.52v0a.94.94,0,0,1-.29.73,1,1,0,0,1-.74.3,1.05,1.05,0,0,1-.88-.39,1.58,1.58,0,0,1-.31-1v-.42a1.59,1.59,0,0,1,.31-1,1.05,1.05,0,0,1,.88-.39,1,1,0,0,1,.75.31,1.07,1.07,0,0,1,.28.81h-.52a.87.87,0,0,0-.14-.5.43.43,0,0,0-.37-.19.48.48,0,0,0-.47.27,1.45,1.45,0,0,0-.14.67v.43a1.52,1.52,0,0,0,.14.68A.49.49,0,0,0,241.71,175.52Z"/><path class="cls-7" d="M244.36,176a1.11,1.11,0,0,1-.87-.38,1.45,1.45,0,0,1-.33-1v-.44a1.48,1.48,0,0,1,.32-1,1,1,0,0,1,.82-.39,1,1,0,0,1,.8.36,1.48,1.48,0,0,1,.28,1v.39h-1.65v.12a1.12,1.12,0,0,0,.18.66.56.56,0,0,0,.49.26,1,1,0,0,0,.41-.07,1.31,1.31,0,0,0,.32-.22l.18.35a1,1,0,0,1-.39.27A1.36,1.36,0,0,1,244.36,176Zm-.06-2.75a.45.45,0,0,0-.4.24,1.29,1.29,0,0,0-.17.62h1.08V174a1,1,0,0,0-.13-.53A.42.42,0,0,0,244.3,173.21Z"/><path class="cls-7" d="M246.41,172.83l0,.45a1,1,0,0,1,.32-.37.77.77,0,0,1,.44-.14.74.74,0,0,1,.63.3,1.54,1.54,0,0,1,.22.92v1.91h-.57V174a1.08,1.08,0,0,0-.12-.6.43.43,0,0,0-.37-.18.52.52,0,0,0-.32.11.82.82,0,0,0-.22.29v2.28h-.57v-3.07Z"/><path class="cls-7" d="M249.83,176a1.11,1.11,0,0,1-.88-.38,1.45,1.45,0,0,1-.33-1v-.44a1.54,1.54,0,0,1,.32-1,1,1,0,0,1,.82-.39.94.94,0,0,1,.8.36,1.48,1.48,0,0,1,.28,1v.39h-1.65v.12a1.12,1.12,0,0,0,.18.66.56.56,0,0,0,.49.26,1,1,0,0,0,.41-.07,1.31,1.31,0,0,0,.32-.22l.19.35a1.13,1.13,0,0,1-.39.27A1.43,1.43,0,0,1,249.83,176Zm-.07-2.75a.45.45,0,0,0-.4.24,1.29,1.29,0,0,0-.17.62h1.08V174a1,1,0,0,0-.13-.53A.41.41,0,0,0,249.76,173.21Z"/><path class="cls-7" d="M295.4,174.86a.68.68,0,0,0-.16-.48,1.25,1.25,0,0,0-.58-.33,2.37,2.37,0,0,1-.9-.47,1,1,0,0,1-.32-.76,1,1,0,0,1,.35-.8,1.32,1.32,0,0,1,.91-.31,1.22,1.22,0,0,1,.92.36,1.17,1.17,0,0,1,.34.87v0h-.55a.87.87,0,0,0-.19-.59.64.64,0,0,0-.52-.23.69.69,0,0,0-.5.19.72.72,0,0,0-.17.48.58.58,0,0,0,.19.45,1.67,1.67,0,0,0,.62.33,1.92,1.92,0,0,1,.86.48,1.09,1.09,0,0,1,.29.78,1,1,0,0,1-.35.81,1.36,1.36,0,0,1-.92.3,1.49,1.49,0,0,1-1-.33,1.07,1.07,0,0,1-.4-.92v0h.55a.82.82,0,0,0,.22.63.85.85,0,0,0,.58.2.69.69,0,0,0,.51-.18A.65.65,0,0,0,295.4,174.86Z"/><path class="cls-7" d="M297.59,175.52a.45.45,0,0,0,.37-.17.62.62,0,0,0,.15-.44h.51v0a1,1,0,0,1-.3.73,1,1,0,0,1-.74.3,1,1,0,0,1-.87-.39,1.52,1.52,0,0,1-.31-1v-.42a1.53,1.53,0,0,1,.31-1,1.13,1.13,0,0,1,1.63-.08,1.11,1.11,0,0,1,.28.81h-.52a.8.8,0,0,0-.15-.5.42.42,0,0,0-.37-.19.47.47,0,0,0-.46.27,1.33,1.33,0,0,0-.14.67v.43a1.4,1.4,0,0,0,.14.68A.48.48,0,0,0,297.59,175.52Z"/><path class="cls-7" d="M300.25,176a1.11,1.11,0,0,1-.88-.38,1.45,1.45,0,0,1-.33-1v-.44a1.49,1.49,0,0,1,.33-1,1,1,0,0,1,.81-.39,1,1,0,0,1,.81.36,1.54,1.54,0,0,1,.28,1v.39h-1.65v.12a1.2,1.2,0,0,0,.17.66.57.57,0,0,0,.5.26,1,1,0,0,0,.41-.07,1.31,1.31,0,0,0,.32-.22l.18.35a1.13,1.13,0,0,1-.39.27A1.4,1.4,0,0,1,300.25,176Zm-.07-2.75a.46.46,0,0,0-.4.24,1.29,1.29,0,0,0-.16.62h1.08V174a1,1,0,0,0-.13-.53A.44.44,0,0,0,300.18,173.21Z"/><path class="cls-7" d="M302.3,172.83l0,.45a1.08,1.08,0,0,1,.33-.37.79.79,0,0,1,1.07.16,1.54,1.54,0,0,1,.22.92v1.91h-.58V174a1.08,1.08,0,0,0-.12-.6.41.41,0,0,0-.37-.18.51.51,0,0,0-.31.11.82.82,0,0,0-.22.29v2.28h-.58v-3.07Z"/><path class="cls-7" d="M305.71,176a1.09,1.09,0,0,1-.87-.38,1.45,1.45,0,0,1-.33-1v-.44a1.48,1.48,0,0,1,.32-1,1,1,0,0,1,.82-.39,1,1,0,0,1,.8.36,1.48,1.48,0,0,1,.28,1v.39h-1.65v.12a1.2,1.2,0,0,0,.17.66.59.59,0,0,0,.5.26,1,1,0,0,0,.41-.07,1.31,1.31,0,0,0,.32-.22l.18.35a1,1,0,0,1-.39.27A1.4,1.4,0,0,1,305.71,176Zm-.06-2.75a.45.45,0,0,0-.4.24,1.29,1.29,0,0,0-.17.62h1.08V174a1,1,0,0,0-.13-.53A.43.43,0,0,0,305.65,173.21Z"/><path class="cls-7" d="M351.29,174.86a.69.69,0,0,0-.17-.48,1.21,1.21,0,0,0-.57-.33,2.42,2.42,0,0,1-.91-.47,1,1,0,0,1-.31-.76,1,1,0,0,1,.35-.8,1.28,1.28,0,0,1,.9-.31,1.22,1.22,0,0,1,.92.36,1.13,1.13,0,0,1,.34.87v0h-.56a.92.92,0,0,0-.18-.59.73.73,0,0,0-1,0,.67.67,0,0,0-.17.48.61.61,0,0,0,.18.45,1.75,1.75,0,0,0,.62.33,1.87,1.87,0,0,1,.86.48,1.06,1.06,0,0,1,.3.78,1,1,0,0,1-.35.81,1.38,1.38,0,0,1-.92.3,1.52,1.52,0,0,1-1-.33,1.09,1.09,0,0,1-.39-.92v0h.55a.82.82,0,0,0,.23.63.83.83,0,0,0,.58.2.71.71,0,0,0,.51-.18A.65.65,0,0,0,351.29,174.86Z"/><path class="cls-7" d="M353.48,175.52a.44.44,0,0,0,.36-.17.62.62,0,0,0,.15-.44h.52v0a.94.94,0,0,1-.29.73,1,1,0,0,1-.74.3,1.05,1.05,0,0,1-.88-.39,1.58,1.58,0,0,1-.3-1v-.42a1.59,1.59,0,0,1,.3-1,1.05,1.05,0,0,1,.88-.39,1,1,0,0,1,.75.31,1.12,1.12,0,0,1,.29.81H354a.87.87,0,0,0-.14-.5.43.43,0,0,0-.37-.19.48.48,0,0,0-.47.27,1.45,1.45,0,0,0-.14.67v.43a1.52,1.52,0,0,0,.14.68A.49.49,0,0,0,353.48,175.52Z"/><path class="cls-7" d="M356.13,176a1.11,1.11,0,0,1-.87-.38,1.45,1.45,0,0,1-.33-1v-.44a1.54,1.54,0,0,1,.32-1,1,1,0,0,1,.82-.39,1,1,0,0,1,.8.36,1.48,1.48,0,0,1,.28,1v.39H355.5v.12a1.12,1.12,0,0,0,.18.66.56.56,0,0,0,.49.26,1,1,0,0,0,.41-.07,1.31,1.31,0,0,0,.32-.22l.19.35a1.13,1.13,0,0,1-.39.27A1.45,1.45,0,0,1,356.13,176Zm-.06-2.75a.45.45,0,0,0-.4.24,1.29,1.29,0,0,0-.17.62h1.08V174a1,1,0,0,0-.13-.53A.41.41,0,0,0,356.07,173.21Z"/><path class="cls-7" d="M358.19,172.83l0,.45a1,1,0,0,1,.32-.37.77.77,0,0,1,.44-.14.74.74,0,0,1,.63.3,1.54,1.54,0,0,1,.22.92v1.91h-.57V174a1.08,1.08,0,0,0-.12-.6.43.43,0,0,0-.37-.18.49.49,0,0,0-.31.11.85.85,0,0,0-.23.29v2.28h-.57v-3.07Z"/><path class="cls-7" d="M361.6,176a1.11,1.11,0,0,1-.88-.38,1.45,1.45,0,0,1-.33-1v-.44a1.54,1.54,0,0,1,.32-1,1,1,0,0,1,.82-.39,1,1,0,0,1,.81.36,1.54,1.54,0,0,1,.28,1v.39H361v.12a1.12,1.12,0,0,0,.18.66.57.57,0,0,0,.49.26,1,1,0,0,0,.41-.07,1.36,1.36,0,0,0,.33-.22l.18.35a1.13,1.13,0,0,1-.39.27A1.4,1.4,0,0,1,361.6,176Zm-.07-2.75a.46.46,0,0,0-.4.24,1.41,1.41,0,0,0-.17.62h1.09V174a1,1,0,0,0-.14-.53A.41.41,0,0,0,361.53,173.21Z"/><path class="cls-7" d="M407.17,174.86a.68.68,0,0,0-.16-.48,1.25,1.25,0,0,0-.58-.33,2.37,2.37,0,0,1-.9-.47,1,1,0,0,1-.32-.76,1,1,0,0,1,.36-.8,1.28,1.28,0,0,1,.9-.31,1.22,1.22,0,0,1,.92.36,1.17,1.17,0,0,1,.34.87v0h-.55a.87.87,0,0,0-.19-.59.63.63,0,0,0-.52-.23.69.69,0,0,0-.5.19.72.72,0,0,0-.17.48.58.58,0,0,0,.19.45,1.67,1.67,0,0,0,.62.33,1.92,1.92,0,0,1,.86.48,1.09,1.09,0,0,1,.29.78,1,1,0,0,1-.35.81,1.35,1.35,0,0,1-.91.3,1.5,1.5,0,0,1-1-.33,1.07,1.07,0,0,1-.4-.92v0h.55a.82.82,0,0,0,.22.63.88.88,0,0,0,.59.2.68.68,0,0,0,.5-.18A.65.65,0,0,0,407.17,174.86Z"/><path class="cls-7" d="M409.37,175.52a.44.44,0,0,0,.36-.17.62.62,0,0,0,.15-.44h.51v0a.92.92,0,0,1-.3.73,1,1,0,0,1-.73.3,1,1,0,0,1-.88-.39,1.52,1.52,0,0,1-.31-1v-.42a1.53,1.53,0,0,1,.31-1,1.13,1.13,0,0,1,1.63-.08,1.11,1.11,0,0,1,.28.81h-.52a.87.87,0,0,0-.14-.5.45.45,0,0,0-.38-.19.47.47,0,0,0-.46.27,1.33,1.33,0,0,0-.14.67v.43a1.4,1.4,0,0,0,.14.68A.48.48,0,0,0,409.37,175.52Z"/><path class="cls-7" d="M412,176a1.13,1.13,0,0,1-.88-.38,1.45,1.45,0,0,1-.33-1v-.44a1.49,1.49,0,0,1,.33-1,1,1,0,0,1,.82-.39,1,1,0,0,1,.8.36,1.48,1.48,0,0,1,.28,1v.39h-1.65v.12a1.2,1.2,0,0,0,.17.66.57.57,0,0,0,.5.26,1,1,0,0,0,.41-.07,1.31,1.31,0,0,0,.32-.22l.18.35a1,1,0,0,1-.39.27A1.4,1.4,0,0,1,412,176Zm-.06-2.75a.48.48,0,0,0-.41.24,1.41,1.41,0,0,0-.16.62h1.08V174a1,1,0,0,0-.13-.53A.43.43,0,0,0,412,173.21Z"/><path class="cls-7" d="M414.07,172.83l0,.45a1.08,1.08,0,0,1,.33-.37.79.79,0,0,1,1.07.16,1.54,1.54,0,0,1,.22.92v1.91h-.58V174a1.08,1.08,0,0,0-.12-.6.41.41,0,0,0-.37-.18.51.51,0,0,0-.31.11.82.82,0,0,0-.22.29v2.28h-.58v-3.07Z"/><path class="cls-7" d="M417.48,176a1.11,1.11,0,0,1-.87-.38,1.45,1.45,0,0,1-.33-1v-.44a1.48,1.48,0,0,1,.32-1,1,1,0,0,1,.82-.39,1,1,0,0,1,.8.36,1.48,1.48,0,0,1,.28,1v.39h-1.65v.12a1.2,1.2,0,0,0,.17.66.59.59,0,0,0,.5.26,1,1,0,0,0,.41-.07,1.31,1.31,0,0,0,.32-.22l.18.35a1,1,0,0,1-.39.27A1.4,1.4,0,0,1,417.48,176Zm-.06-2.75a.45.45,0,0,0-.4.24,1.29,1.29,0,0,0-.17.62h1.08V174a1,1,0,0,0-.13-.53A.43.43,0,0,0,417.42,173.21Z"/><rect class="cls-2" x="271.15" y="94.65" width="81.74" height="1"/><rect class="cls-7" x="253.63" y="103.13" width="30.04" height="3.77" rx="1.87"/><rect class="cls-7" x="253.63" y="172.1" width="30.04" height="3.77" rx="1.87"/><rect class="cls-7" x="309.68" y="103.13" width="30.04" height="3.77" rx="1.87"/><rect class="cls-7" x="309.68" y="172.1" width="30.04" height="3.77" rx="1.87"/><rect class="cls-7" x="364.91" y="103.13" width="30.04" height="3.77" rx="1.87"/><rect class="cls-7" x="364.91" y="172.1" width="30.04" height="3.77" rx="1.87"/><rect class="cls-7" x="422.27" y="103.13" width="30.04" height="3.77" rx="1.87"/><rect class="cls-7" x="422.27" y="172.1" width="30.04" height="3.77" rx="1.87"/><rect class="cls-7" x="109.82" y="61.94" width="107.66" height="68.24" transform="translate(-24.67 72.73) rotate(-23.35)"/><polygon class="cls-2" points="207.02 55.21 104.7 99.39 92.91 72.08 193.53 27.3 195.23 27.91 207.02 55.21"/><rect class="cls-2" x="108.32" y="61.19" width="107.66" height="68.24" transform="translate(-24.5 72.08) rotate(-23.35)"/><rect class="cls-7" x="95.61" y="63.43" width="111.45" height="13.65" transform="translate(-15.45 65.74) rotate(-23.35)"/><rect class="cls-7" x="89.3" y="48.81" width="111.45" height="13.65" transform="translate(-10.17 62.04) rotate(-23.35)"/><rect class="cls-7" x="145.51" y="84.6" width="2" height="38.92" transform="translate(-29.25 66.59) rotate(-23.35)"/><rect class="cls-7" x="176.6" y="71.18" width="2" height="38.92" transform="translate(-21.38 77.82) rotate(-23.35)"/><rect class="cls-7" x="110.38" y="89.62" width="97.55" height="2" transform="translate(-22.89 70.54) rotate(-23.36)"/><polygon class="cls-2" points="101.7 80.05 95.78 82.6 96.05 70.93 101.96 68.38 101.7 80.05"/><polygon class="cls-2" points="114.64 74.47 108.72 77.02 108.98 65.35 114.9 62.79 114.64 74.47"/><polygon class="cls-2" points="127.57 68.88 121.66 71.44 121.92 59.76 127.83 57.21 127.57 68.88"/><polygon class="cls-2" points="140.51 63.3 134.59 65.85 134.85 54.18 140.77 51.62 140.51 63.3"/><polygon class="cls-2" points="153.44 57.71 147.53 60.27 147.79 48.59 153.7 46.04 153.44 57.71"/><polygon class="cls-2" points="166.38 52.13 160.46 54.68 160.72 43.01 166.64 40.45 166.38 52.13"/><polygon class="cls-2" points="179.32 46.54 173.4 49.1 173.66 37.42 179.58 34.87 179.32 46.54"/><polygon class="cls-2" points="192.25 40.96 186.34 43.51 186.59 31.84 192.51 29.29 192.25 40.96"/><polygon class="cls-2" points="108.04 94.73 102.12 97.28 102.38 85.61 108.3 83.05 108.04 94.73"/><polygon class="cls-2" points="120.97 89.14 115.06 91.69 115.32 80.02 121.23 77.47 120.97 89.14"/><polygon class="cls-2" points="133.91 83.56 127.99 86.11 128.25 74.44 134.17 71.88 133.91 83.56"/><polygon class="cls-2" points="146.84 77.97 140.93 80.53 141.19 68.85 147.1 66.3 146.84 77.97"/><polygon class="cls-2" points="159.78 72.39 153.86 74.94 154.12 63.27 160.04 60.71 159.78 72.39"/><polygon class="cls-2" points="172.72 66.8 166.8 69.36 167.06 57.68 172.98 55.13 172.72 66.8"/><polygon class="cls-2" points="185.65 61.22 179.74 63.77 180 52.1 185.91 49.55 185.65 61.22"/><polygon class="cls-2" points="198.59 55.63 192.67 58.19 192.93 46.52 198.85 43.96 198.59 55.63"/><path class="cls-2" d="M126.53,90.87l-24.68,10.65L91.2,76.85a2.3,2.3,0,0,1,1.21-3l2.66-1.15a24,24,0,0,1,31.52,12.51l1.15,2.66A2.32,2.32,0,0,1,126.53,90.87Z"/><path class="cls-9" d="M125.32,89.71,102,99.8,91.86,76.43A2.19,2.19,0,0,1,93,73.55l2.53-1.09a22.72,22.72,0,0,1,29.85,11.85l1.09,2.52A2.2,2.2,0,0,1,125.32,89.71Z"/><path class="cls-2" d="M100.8,77.31a2,2,0,1,1-2.65-1.06A2,2,0,0,1,100.8,77.31Z"/><path class="cls-7" d="M99.91,77a2,2,0,1,1-2.66-1.06A2,2,0,0,1,99.91,77Z"/><path class="cls-2" d="M106.71,91a2,2,0,1,1-2.65-1.06A2,2,0,0,1,106.71,91Z"/><path class="cls-7" d="M105.82,90.64a2,2,0,1,1-2.66-1.06A2,2,0,0,1,105.82,90.64Z"/><path class="cls-2" d="M122.84,84A2,2,0,1,1,120.18,83,2,2,0,0,1,122.84,84Z"/><path class="cls-7" d="M121.94,83.68a2,2,0,1,1-2.65-1.06A2,2,0,0,1,121.94,83.68Z"/><circle class="cls-2" cx="161.41" cy="195.07" r="53.42" transform="translate(-56.6 66.32) rotate(-19.83)"/><circle class="cls-8" cx="157.33" cy="189.55" r="53.4" transform="translate(-34.91 343.58) rotate(-89.01)"/><circle class="cls-7" cx="157.33" cy="189.55" r="52.31" transform="translate(-87.95 166.77) rotate(-45)"/><circle class="cls-8" cx="157.33" cy="189.55" r="33.8" transform="translate(-63.55 80.5) rotate(-24.03)"/><circle class="cls-7" cx="150.33" cy="187.49" r="30.35" transform="matrix(0.99, -0.13, 0.13, 0.99, -22.5, 20.51)"/><circle class="cls-8" cx="151.55" cy="187.9" r="30.35" transform="translate(-76.91 265.87) rotate(-69.96)"/><circle class="cls-8" cx="152.56" cy="189.39" r="28.36" transform="translate(-86.49 234.08) rotate(-61.74)"/><circle class="cls-9" cx="154.19" cy="190.57" r="28.36" transform="translate(-47.64 51.45) rotate(-16.45)"/><circle class="cls-8" cx="151.55" cy="187.9" r="28.36" transform="matrix(0.8, -0.6, 0.6, 0.8, -82.38, 128.3)"/><path class="cls-8" d="M195.41,199.5l-18.29-3.45,1.38-7.36,18.3,3.45a3.71,3.71,0,0,1,2.95,4.33v.07A3.72,3.72,0,0,1,195.41,199.5Z"/><path class="cls-9" d="M195.12,201l-18.29-3.45,1.39-7.35,18.29,3.45a3.7,3.7,0,0,1,3,4.32l0,.08A3.7,3.7,0,0,1,195.12,201Z"/><path class="cls-7" d="M195.29,200.12,177,196.67l1.38-7.36,18.3,3.45a3.71,3.71,0,0,1,2.95,4.33v.07A3.7,3.7,0,0,1,195.29,200.12Z"/><path class="cls-8" d="M195.81,197.39l-18.3-3.45-.43,2.29,18.3,3.44c2,.38,3.88-.57,4.17-2.13v-.06a2.45,2.45,0,0,0-.08-1.17A3.82,3.82,0,0,1,195.81,197.39Z"/><circle class="cls-7" cx="151.55" cy="187.9" r="28.36" transform="matrix(0.8, -0.6, 0.6, 0.8, -82.38, 128.3)"/><circle class="cls-8" cx="151.49" cy="187.98" r="26.41" transform="translate(-89.93 189.69) rotate(-51.54)"/><circle class="cls-2" cx="151.98" cy="187.94" r="24.29" transform="translate(-89.71 186.15) rotate(-50.61)"/><circle class="cls-10" cx="153.07" cy="189.54" r="22.93" transform="translate(-58.92 309.6) rotate(-80.6)"/><rect class="cls-2" x="519.33" y="38.07" width="159.47" height="228.51" rx="8.77"/><rect class="cls-11" x="518.08" y="36.57" width="159.47" height="228.51" rx="8.77"/><rect class="cls-12" x="560.6" y="32.12" width="75.23" height="10.16"/><rect class="cls-13" x="560.6" y="32.12" width="75.23" height="4.69"/><rect class="cls-2" x="530.52" y="45.48" width="138.25" height="203.32"/><rect class="cls-7" x="528.69" y="43.81" width="138.25" height="203.32"/><rect class="cls-2" x="541.98" y="68.42" width="116.41" height="1"/><rect class="cls-2" x="541.98" y="81.17" width="116.41" height="1"/><rect class="cls-2" x="541.98" y="117.52" width="116.41" height="1"/><rect class="cls-2" x="541.98" y="172.32" width="88.85" height="1"/><rect class="cls-2" x="541.98" y="185.07" width="88.85" height="1"/><rect class="cls-2" x="541.98" y="221.42" width="88.85" height="1"/><rect class="cls-9" x="544.51" y="126.02" width="60.19" height="38.65"/><rect class="cls-9" x="608.82" y="126.02" width="49.1" height="38.65"/><path class="cls-2" d="M627.76,33.17h-4.94v3h4.94a2.1,2.1,0,0,1,2.11,2.1V53.71a2.1,2.1,0,0,1-2.11,2.1H569a2.1,2.1,0,0,1-2.11-2.1V38.27a2.1,2.1,0,0,1,2.11-2.1h4.54v-3H569a5.11,5.11,0,0,0-5.11,5.1V53.71a5.11,5.11,0,0,0,5.11,5.1h58.73a5.11,5.11,0,0,0,5.11-5.1V38.27A5.11,5.11,0,0,0,627.76,33.17Z"/><rect class="cls-2" x="521.09" y="19.36" width="27.92" height="173.42" transform="translate(-7.89 158.51) rotate(-16.73)"/><rect class="cls-14" x="519.42" y="19.69" width="27.92" height="173.42" transform="matrix(0.96, -0.29, 0.29, 0.96, -8.05, 158.04)"/><rect class="cls-12" x="519.6" y="20.92" width="19.42" height="173.42" transform="translate(-8.58 156.92) rotate(-16.73)"/><rect class="cls-14" x="519.76" y="23.64" width="1.01" height="173.42" transform="translate(-9.74 154.46) rotate(-16.73)"/><rect class="cls-7" x="513.27" y="25.28" width="10.12" height="1" transform="translate(14.42 149.89) rotate(-16.68)"/><rect class="cls-7" x="516.63" y="36.45" width="10.12" height="1" transform="translate(11.35 151.32) rotate(-16.68)"/><rect class="cls-7" x="519.99" y="47.63" width="10.12" height="1" transform="translate(8.28 152.75) rotate(-16.68)"/><rect class="cls-7" x="523.34" y="58.8" width="10.12" height="1" transform="translate(5.22 154.19) rotate(-16.68)"/><rect class="cls-7" x="526.7" y="69.97" width="10.12" height="1" transform="translate(2.15 155.62) rotate(-16.68)"/><rect class="cls-7" x="530.06" y="81.15" width="10.12" height="1" transform="translate(-0.91 157.07) rotate(-16.68)"/><rect class="cls-7" x="533.42" y="92.32" width="10.12" height="1" transform="translate(-3.98 158.49) rotate(-16.68)"/><rect class="cls-7" x="536.78" y="103.49" width="10.12" height="1" transform="translate(-7.05 159.92) rotate(-16.68)"/><rect class="cls-7" x="540.14" y="114.67" width="10.12" height="1" transform="translate(-10.11 161.35) rotate(-16.68)"/><rect class="cls-7" x="543.49" y="125.84" width="10.12" height="1" transform="translate(-13.18 162.79) rotate(-16.68)"/><rect class="cls-7" x="546.85" y="137.02" width="10.12" height="1" transform="translate(-16.25 164.23) rotate(-16.68)"/><rect class="cls-7" x="550.21" y="148.19" width="10.12" height="1" transform="translate(-19.31 165.66) rotate(-16.68)"/><rect class="cls-7" x="553.57" y="159.36" width="10.12" height="1" transform="translate(-22.38 167.1) rotate(-16.68)"/><rect class="cls-7" x="556.93" y="170.54" width="10.12" height="1" transform="translate(-25.45 168.5) rotate(-16.68)"/><rect class="cls-7" x="560.29" y="181.71" width="10.12" height="1" transform="translate(-28.51 169.97) rotate(-16.68)"/><rect class="cls-7" x="520.85" y="30.07" width="4.11" height="1" transform="translate(13.23 151.39) rotate(-16.68)"/><rect class="cls-7" x="524.21" y="41.24" width="4.11" height="1" transform="translate(10.18 152.88) rotate(-16.69)"/><rect class="cls-7" x="527.57" y="52.41" width="4.11" height="1" transform="translate(7.11 154.32) rotate(-16.69)"/><rect class="cls-7" x="530.93" y="63.59" width="4.11" height="1" transform="translate(4.04 155.75) rotate(-16.69)"/><rect class="cls-7" x="534.28" y="74.76" width="4.11" height="1" transform="translate(0.97 157.14) rotate(-16.68)"/><rect class="cls-7" x="537.64" y="85.94" width="4.11" height="1" transform="translate(-2.1 158.58) rotate(-16.68)"/><rect class="cls-7" x="541" y="97.11" width="4.11" height="1" transform="translate(-5.16 160.01) rotate(-16.68)"/><rect class="cls-7" x="544.36" y="108.28" width="4.11" height="1" transform="translate(-8.23 161.44) rotate(-16.68)"/><rect class="cls-7" x="547.72" y="119.46" width="4.11" height="1" transform="translate(-11.3 162.87) rotate(-16.68)"/><rect class="cls-7" x="551.08" y="130.63" width="4.11" height="1" transform="translate(-14.36 164.31) rotate(-16.68)"/><rect class="cls-7" x="554.44" y="141.8" width="4.11" height="1" transform="translate(-17.43 165.76) rotate(-16.68)"/><rect class="cls-7" x="557.79" y="152.98" width="4.11" height="1" transform="translate(-20.49 167.18) rotate(-16.68)"/><rect class="cls-7" x="561.15" y="164.15" width="4.11" height="1" transform="translate(-23.56 168.61) rotate(-16.68)"/><rect class="cls-7" x="564.51" y="175.33" width="4.11" height="1" transform="translate(-26.63 170.05) rotate(-16.68)"/><polygon class="cls-9" points="657.63 241.08 657.63 241.08 655.31 237.35 655.31 237.35 649.32 227.72 601.43 173.21 600.67 173.88 600.67 173.88 597.25 176.89 645.14 231.4 657.31 241.36 657.5 241.2 657.5 241.2 657.63 241.08 657.63 241.08"/><rect class="cls-9" x="621.21" y="164.89" width="5.57" height="72.56" transform="translate(22.44 461.88) rotate(-41.3)"/><rect class="cls-8" x="625.19" y="163.39" width="1.02" height="72.56" transform="translate(23.85 462.63) rotate(-41.3)"/><rect class="cls-2" x="621.74" y="166.31" width="1.27" height="72.56" transform="translate(21.1 461.16) rotate(-41.3)"/><polygon class="cls-15" points="645.84 230.26 658.02 240.23 658.34 239.94 650.03 226.59 645.84 230.26"/><polygon class="cls-16" points="646.77 229.45 645.84 230.26 658.02 240.23 658.2 240.06 646.77 229.45"/><polygon class="cls-2" points="656.02 236.22 654.62 237.44 658.02 240.23 658.34 239.94 656.02 236.22"/><path class="cls-2" d="M295.94,246.92c1.37-1.87,2.57-3.9,4-5.73a25.22,25.22,0,0,1,9.32-7.31,2.17,2.17,0,0,0,1.24-1c.35-.79-.35-1.62-1-2.2A9.38,9.38,0,0,0,307,229c-3.48-1.39-7.12,1.35-9.88,3.88s-6.48,5.21-9.91,3.71a2.92,2.92,0,0,1-1.51-1.34,3.94,3.94,0,0,1,.13-2.78c2.81-9.22,8.36-17.38,14.87-24.48,3.07-3.34,7.54-6,8-10.85a4.66,4.66,0,0,0-5.87-.44c-8.26,5.49-16.58,14.21-22.79,21.94-1.11-2.4,1-6,2.37-8.23A85.25,85.25,0,0,1,292,197.43c2.24-2.5,4.68-5,6-8,.57-1.33.73-3.22-.56-3.88a2.69,2.69,0,0,0-2.69.36,118.72,118.72,0,0,0-26.51,27.58c.62-5.45,1.88-12.84,4.57-17.62,2.29-4.06,8.52-10.34,6.5-11.88-3.49-.88-5.66,1.11-8.17,3.69C264.3,194.59,260,203.6,256,212.47c-3.44-6.44-2-14.23-1.53-21.51a2.94,2.94,0,0,0-.18-1.56,2,2,0,0,0-2.81-.52,5.16,5.16,0,0,0-1.83,2.55c-4.89,11.78-.8,25.59-4.56,37.78-1,3.07-2.39,6-2.92,9.19-.48,2.81-.24,5.72-.73,8.52Z"/><path class="cls-2" d="M247,247.5a21,21,0,0,1-.42,3.17,21.46,21.46,0,0,1-2.79,6.29l-1.13-.59a3.74,3.74,0,0,0-5.91,1.26l-6.41,8.64c-.84-.71-1.69-1.4-2.52-2.13q-22.8,30.12-43,62.09c-9,14.19-17.61,28.82-22.45,44.9s-5.59,33.9,1.06,49.31c2.28,5.3,5.53,10.37,10.26,13.69,4.51,3.17,10.08,4.53,15.58,5,13.22,1.14,27.56-3.23,35.54-13.84,6.28-8.34,7.88-19.19,9.57-29.5A560.92,560.92,0,0,1,263.64,287.1l-1.2-.57q2.94-6.22,5.87-12.46a4.52,4.52,0,0,0,.61-3.21,3.41,3.41,0,0,0-1.51-1.68,20.76,20.76,0,0,1,3.18-3.82c7.7-7.08,20.8-5.44,28.3-12.73a30.55,30.55,0,0,0,4-5.13Z"/><path class="cls-2" d="M491.25,186.93c13.61,13.55,22.48,31,31.13,48.17,6,11.9,12.13,24.28,12.57,37.6.09,2.62.32,5.86,2.72,6.91,1.48.65,3.19.12,4.72-.42,10.68-3.73,22.32-8.25,27.66-18.23a34,34,0,0,0,3.42-12.59c2.68-25.91-10.68-51.43-29.43-69.53-15.69-15.14-35.11-26.17-49.84-42.25-4.92-5.37-9.4-11.36-15.65-15.1-11.19-6.68-25.31-4.69-38.15-2.48-3.44.59-7.46,1.63-8.71,4.89-1.16,3.06.78,6.34,2.63,9,5,7.19,10.11,14.57,17.38,19.42,6.71,4.48,14.79,6.5,21.72,10.64,4.5,2.69,8.61,6.47,10.35,11.42.63,1.77.93,3.65,1.69,5.37C486.71,182.61,489.07,184.75,491.25,186.93Z"/><path class="cls-17" d="M308.27,228.71a9.38,9.38,0,0,0-2.55-1.74c-3.48-1.39-7.12,1.35-9.88,3.88s-6.48,5.21-9.91,3.71a2.92,2.92,0,0,1-1.51-1.34,3.94,3.94,0,0,1,.13-2.78c2.81-9.22,8.36-17.38,14.87-24.48,3.07-3.34,7.54-6,8-10.85a4.66,4.66,0,0,0-5.87-.44c-8.26,5.49-16.58,14.21-22.79,21.94-1.11-2.4,1-6,2.37-8.23a85.25,85.25,0,0,1,9.57-12.95c2.24-2.5,4.68-5,6-8,.57-1.33.73-3.22-.56-3.88a2.69,2.69,0,0,0-2.69.36,118.72,118.72,0,0,0-26.51,27.58c.62-5.45,1.88-12.84,4.57-17.62C273.8,189.78,280,183.5,278,182c-3.49-.88-5.66,1.11-8.17,3.69-6.79,6.94-11.13,15.95-15.09,24.82-3.44-6.44-2-14.23-1.53-21.51a2.94,2.94,0,0,0-.18-1.56,2,2,0,0,0-2.81-.52,5.16,5.16,0,0,0-1.83,2.55c-4.89,11.78-.8,25.59-4.56,37.78-.94,3.07-2.39,6-2.92,9.19s-.18,6.24-.87,9.27-2.52,5.92-4.28,8.63l-12,18.46c8,4.81,16,9.68,24.12,14.43l10.43-18.66c1.64-2.93,3.31-5.9,5.77-8.17,7.7-7.08,20.8-5.44,28.3-12.73,2.52-2.45,4.13-5.68,6.31-8.44a25.22,25.22,0,0,1,9.32-7.31,2.17,2.17,0,0,0,1.24-1C309.61,230.12,308.91,229.29,308.27,228.71Z"/><path class="cls-18" d="M288.82,244.92c-7,7-20-1-27,6-9.41,8.51-16.4,19.42-22.88,31q4.47,2.67,8.95,5.32,5.22-9.33,10.43-18.66c1.64-2.93,3.31-5.9,5.77-8.17,7.7-7.08,20.8-5.44,28.3-12.73,2.52-2.45,4.13-5.68,6.31-8.44a25.22,25.22,0,0,1,9.32-7.31,2.17,2.17,0,0,0,1.24-1,1.34,1.34,0,0,0-.22-1.32C300.91,231.92,295.58,239.85,288.82,244.92Z"/><path class="cls-3" d="M219.86,266.6l10.36-14a3.74,3.74,0,0,1,5.91-1.26L260,263.65a3.34,3.34,0,0,1,1.86,5.42q-5.6,11.88-11.18,23.74-16.9-10-33.12-21.11Z"/><path class="cls-13" d="M182.75,434.13c13.22,1.14,27.56-3.23,35.54-13.84,6.28-8.34,7.88-19.19,9.57-29.5A560.92,560.92,0,0,1,257.14,282.1a143.41,143.41,0,0,1-35.85-23q-22.8,30.12-43,62.09c-9,14.19-17.61,28.82-22.45,44.9s-5.59,33.9,1.06,49.31c2.28,5.3,5.53,10.37,10.26,13.69C171.68,432.3,177.25,433.66,182.75,434.13Z"/><path class="cls-3" d="M196.56,433.29c8.57-1.81,16.51-6.06,21.73-13,6.28-8.34,7.88-19.19,9.57-29.5A560.92,560.92,0,0,1,257.14,282.1c-2.32-1-4.61-2.16-6.87-3.32C229,328.9,207.55,380,196.56,433.29Z"/><path class="cls-3" d="M166.61,391.79a104.8,104.8,0,0,0-3.42,33.77,24.13,24.13,0,0,0,4,3.57c4.51,3.17,10.08,4.53,15.58,5,13.22,1.14,27.56-3.23,35.54-13.84,6.28-8.34,7.88-19.19,9.57-29.5A562.79,562.79,0,0,1,241.62,329C209.45,341.25,175,356.48,166.61,391.79Z"/><path class="cls-13" d="M292.14,323.17c-12.65-2.2-24.59,5.62-35.49,12.41a301.23,301.23,0,0,1-59.59,28.52c-10.06,3.52-20.62,6.67-28.74,13.58a44.61,44.61,0,0,0-12.89,19.46c-2.45,7.1-3.36,14.95-1.15,22.13,3.43,11.14,14,19,25.26,22s23.22,1.74,34.68-.36c20.27-3.71,40.21-10.12,60.81-10.55,6.2-.13,12.62.24,18.39-2,11-4.35,16.32-17.21,16.43-29s-3.76-23.22-5.73-34.85a108.72,108.72,0,0,1,.29-37.78Z"/><path class="cls-3" d="M154.2,419l.08.29c3.43,11.14,14,19,25.26,22s23.22,1.74,34.68-.36c20.27-3.71,40.21-10.12,60.81-10.55,6.2-.13,12.62.24,18.39-2,11-4.35,16.32-17.21,16.43-29,.07-7.41-1.43-14.68-3.05-21.94C258.47,398.31,209,428.25,154.2,419Z"/><path class="cls-3" d="M270.17,346.43a89.67,89.67,0,0,0-36.28,63.15c-.54,5.54-.34,11.71,3.4,15.83s10.16,4.93,15.88,5.34c5.12.37,10.87.53,14.64-2.94,4-3.68,4.09-9.84,4.08-15.27a237.17,237.17,0,0,1,9-65.41Z"/><path class="cls-3" d="M175.31,365.74c-5.57,4-10.82,8.6-14.31,14.49s-5,13.17-3,19.69C160.8,387.38,168.13,376.39,175.31,365.74Z"/><path class="cls-19" d="M253.64,354.55c-.32,1.72-1.39,4-3,3.43,1-1.3-.65-3.24-2.27-3.17s-2.91,1.32-4,2.54c-4.63,5.26-8.24,11.32-11.82,17.34l1.26-11a25.84,25.84,0,0,1,1.45-6.94c1.51-3.7,4.63-6.48,7.79-8.92a99.36,99.36,0,0,1,19.19-11.65A40.72,40.72,0,0,0,253.64,354.55Z"/><path class="cls-19" d="M197.05,367.93a113,113,0,0,1,33.22-10.71,43.46,43.46,0,0,0-5.14,13.66c-2-1.5-4.87-1.42-7.27-.63s-4.54,2.21-6.84,3.27c-10,4.6-22.75,2.33-31.49,9-4.3,3.29-7.46,8.64-12.78,9.65a8.49,8.49,0,0,1,.38-3.27c1.19-4.77,2.7-10,6.82-12.66,3.18-2.06,7.19-2.12,10.87-3C189.15,372.2,193.07,369.93,197.05,367.93Z"/><path class="cls-19" d="M205.55,296.21c2.45-4.52,4.37-9.36,7.38-13.53s7.45-7.69,12.58-8.06a7.57,7.57,0,0,1-.18-5.67,7.74,7.74,0,0,1-3.7-3.31c-1.48,4-4,7.5-6.48,10.94-10.54,14.52-21.56,28.71-31.08,43.9s-17.56,31.54-21.54,49a71.88,71.88,0,0,1,14.95-11.17c-1.19.75-2.85-.42-3.1-1.81a6.15,6.15,0,0,1,1.11-4,7.47,7.47,0,0,0,1.37-4c-.06-1-.57-2-.67-3-.27-2.84,2.48-4.89,4.55-6.86,5.4-5.12,7.39-12.75,10.64-19.45C195.31,311.13,201.26,304.15,205.55,296.21Z"/><path class="cls-17" d="M510.5,141.31a79,79,0,0,1-6.62-4.39,61.75,61.75,0,0,1-9.62-13.31c-1.22-2.27-3.94-6.91-5.82-8.68s-3.87-1.08-6.33-1.1a11,11,0,0,0-4-2.86c-3-1.6-5.7-1.9-7.6,1.11-2.54-1.9-3.11-3.12-5.7-3.16s-3.56.63-4.91,2.85c-3.65-2.06-4.18-2.81-6.82-1.9a13.46,13.46,0,0,0-3.14,1.76,19.75,19.75,0,0,1-2.44.88c-2.61.66-5.55.17-7.86,1.55a10.79,10.79,0,0,0-2.15,1.84q-4.51,4.6-9,9.22c1.3,1.94,4.24,1.89,6.37.94s4-2.58,6.22-3.19,4.46-.17,6.67.24l6.25,1.18a21.68,21.68,0,0,1,1.22,8.79c9.25,3.5,13.58,11.88,15.1,20.93.93.08,1.95.14,3.12.2a27.71,27.71,0,0,0,5.83-.19c3.16-.45,5.89,2.12,8,4.56,5.37,6.39,14.49,16.8,19.77,24.5a70,70,0,0,1,6.74-10.85c2-2.65,4.21-5.12,6.2-7.77,1.22-1.62,2.43-3.24,3.68-4.83A85.18,85.18,0,0,1,510.5,141.31Z"/><rect class="cls-13" x="425.72" y="104.09" width="72.13" height="5.54" transform="translate(29.16 300.5) rotate(-37.14)"/><rect class="cls-12" x="424.35" y="104.55" width="72.13" height="1.01" transform="translate(29.97 299.31) rotate(-37.14)"/><rect class="cls-3" x="427.01" y="107.93" width="72.13" height="1.26" transform="translate(28.39 301.63) rotate(-37.14)"/><polygon class="cls-14" points="434.71 130.84 420.87 138.12 420.61 137.78 431.36 126.43 434.71 130.84"/><polygon class="cls-16" points="433.96 129.87 434.71 130.84 420.87 138.12 420.72 137.93 433.96 129.87"/><polygon class="cls-2" points="423.61 134.61 424.73 136.09 420.87 138.12 420.61 137.78 423.61 134.61"/><path class="cls-18" d="M500.44,151a20.53,20.53,0,0,0-18.6-4.53,54.94,54.94,0,0,1-13,1.71,38.15,38.15,0,0,1,1.44,5.85c1.05.09,2.21.16,3.55.22a45.61,45.61,0,0,0,5.72-.24c3-.24,5.64,2.23,7.63,4.59,5.37,6.39,14.49,16.8,19.77,24.5a70,70,0,0,1,6.74-10.85c1.66-2.19,3.45-4.27,5.15-6.42C512.56,161,506.34,156.16,500.44,151Z"/><path class="cls-17" d="M455.22,133.08v.21a19.87,19.87,0,0,1-8.71-1.57c-3.61-1.66-6.73-4.81-10.7-4.9-1.42,0-3.7,1.38-3.59,2.8,0,.71,2.92,3.47,3.32,4,6.75,9.5,10.1,7.37,17.11,15.21.48.53,4.26,1.91,7.47,2.93a.38.38,0,0,0,.13.16,36.47,36.47,0,0,0,10.07,2C470.69,144.55,464.47,136.58,455.22,133.08Z"/><path class="cls-18" d="M447.34,144.06a30.84,30.84,0,0,1,5.31,4.81c.48.53,4.26,1.91,7.47,2.93a.38.38,0,0,0,.13.16,36.55,36.55,0,0,0,10.07,2c-.33-2,.07-3.95-.57-5.84A61.2,61.2,0,0,1,447.34,144.06Z"/><path class="cls-3" d="M505.91,185.34a69.36,69.36,0,0,1,7.82-13.11c2-2.65,4.21-5.12,6.2-7.77,1.87-2.49,3.72-5,5.75-7.38.34-.39.69-.79,1.05-1.18a122.17,122.17,0,0,1-12.19-13.74,37.94,37.94,0,0,0-28.57,29A74,74,0,0,1,505.91,185.34Z"/><path class="cls-13" d="M616.23,275.79c.46-4.5-1.08-8.94-2.72-13.16a247.09,247.09,0,0,0-83.88-109.22c-1.73-1.27-3.61-2.56-5.76-2.71-2.7-.19-5.15,1.46-7.27,3.14-4.45,3.54-10.39,11.55-15,18.25a13.21,13.21,0,0,0-.37,14.52c12.82,20.47,28,36,40.19,57.78,2.43,4.34,4.94,9.19,3.86,14.05-.82,3.68-9.27,14.75-11.92,17.44-13.43,13.65-11.91,15.52-43.14,34.9,17,29.58,18,69.26,22.13,103.21,35.92-33.38,79.9-84.45,100.78-128.82C614.51,282.17,615.9,279.08,616.23,275.79Z"/><path class="cls-19" d="M508.48,164.78a17.24,17.24,0,0,0-2.93,5.06c-.25.72-.38,1.65.2,2.15a1.44,1.44,0,0,0,1.66,0,4.25,4.25,0,0,0,1.15-1.34q4.17-6.58,8.33-13.16A30.35,30.35,0,0,0,508.48,164.78Z"/><path class="cls-3" d="M542.82,232.92c-10.51-20.2-39.3-39.1-40.46-62l-.79,1.14a13.21,13.21,0,0,0-.37,14.52c12.82,20.47,28,36,40.19,57.78a41.41,41.41,0,0,1,3.28,6.93A28.3,28.3,0,0,0,542.82,232.92Z"/><path class="cls-3" d="M613.51,262.63q-2.12-5.44-4.51-10.8c-1.47,43.53-37.77,78.38-73,103.22-3.22-4.54-8.3-8-13.29-10.76-7.27-4-15.29-7.63-19.82-14.57a340.36,340.36,0,0,1,6.7,40.38c-.68.31-1.37.62-2.06.91,1.59,12.1,2.66,24.26,3.93,35.9q0,5.93-.24,11.84,4.46-5.78,8.51-11.84c34.35-33.24,73.87-80.4,93.32-121.74,1.41-3,2.8-6.09,3.13-9.38C616.69,271.29,615.15,266.85,613.51,262.63Z"/><path class="cls-3" d="M547.17,250.24a16.65,16.65,0,0,0,.58,5.62,2.66,2.66,0,0,0,.66,1.29,2.74,2.74,0,0,0,2.58.18c6.64-1.9,12.58-6.27,19.46-6.9,3.7-.34,7.41.44,11,1.21l9.36,2a51.59,51.59,0,0,1-9-4.66c-2.68-1.74-5.4-3.8-8.58-3.93a15.37,15.37,0,0,0-5.37,1.1,69.57,69.57,0,0,0-11.22,4.51c-1.64.88-3.27,1.93-5.11,2.14S547.57,252.06,547.17,250.24Z"/><path class="cls-3" d="M582.49,246.27c7,3.22,14.2,6.5,21.88,6.63l-12.5-6.32C590.19,245.73,584.32,245.83,582.49,246.27Z"/><path class="cls-19" d="M516.63,310.18a36.89,36.89,0,0,1-4.23,12.1l-11.33-10.6c5-2.07,8.85-6.14,12.84-9.79,7.33-6.71,15.62-12.29,23-18.9s14.11-14.53,16.93-24.05a73.29,73.29,0,0,1,20.52-4.52c1.94-.14,4.26,0,5.28,1.63a47.49,47.49,0,0,0-23.9,8.93,3.06,3.06,0,0,0-.87.85c-.78,1.36.8,2.87,2.23,3.52s3.22,1.58,3.07,3.14-2.1,2.16-3.65,2.5a26,26,0,0,0-9.73,4.33c-1.7,1.23-3.33,2.8-3.78,4.85-.22,1-.14,2-.34,3-.78,3.77-5,5.52-8.58,7a65.83,65.83,0,0,0-10.65,5.58c-2.4,1.56-4.82,3.41-5.89,6.07A20,20,0,0,0,516.63,310.18Z"/><path class="cls-19" d="M518.54,164.36a13.71,13.71,0,0,0-8,11.71c2.45.38,5.51-1.53,7.16.33,1.29,1.45.22,3.74.5,5.66.46,3.25,4.35,4.5,7.06,6.35,4.85,3.3,6.53,9.53,9.71,14.46,2.87,4.45,7,7.88,11.08,11.29,1.93,1.62,3.9,3.34,4.87,5.66,2.51,6-2.71,13.06-.52,19.18,2,.47,3.77-1.16,5.48-2.28a12.79,12.79,0,0,1,9.31-1.87,84.8,84.8,0,0,0-11.23,5.84c-1.91,1.18-4,2.94-3.67,5.16a49.1,49.1,0,0,1,29.61-4.57c1.35.22,3.41-.16,3.13-1.5-.15-.7-.92-1.05-1.6-1.28l-10.29-3.62a6.55,6.55,0,0,1,3.25-3.72l-10.2-1.82a2.61,2.61,0,0,1-1.53-.64,2.48,2.48,0,0,1-.38-1.86,21,21,0,0,1,1.73-6.75c-1.71-.53-3.81-1.64-3.52-3.41.33-2,3.52-2.53,3.78-4.54a2.59,2.59,0,0,0-2-2.53,8.19,8.19,0,0,0-3.45,0c-3.89.56-8.21.63-11.32-1.77-2.07-1.6-3.26-4-4.52-6.34a71.72,71.72,0,0,0-10.72-14.77c-2.17-2.3-4.64-4.79-4.74-7.95,0-.95.12-2-.52-2.74-1.08-1.2-3.35-.19-4.52-1.3a4.64,4.64,0,0,1-.84-1.49,5.46,5.46,0,0,0-4-3C518,168.3,518.25,166.33,518.54,164.36Z"/><path class="cls-13" d="M285.12,325.07c-9.35,4.09-16.81,12.31-22,21.7s-8.28,19.94-10.85,30.52c-4.1,16.87-6.94,34.89-2.31,51.6a18,18,0,0,0,3.51,7.39,17.06,17.06,0,0,0,6.27,4c25,10.7,52.91,8.65,79.63,12.13,8.89,1.16,17.71,2.95,26.6,4.16a194.39,194.39,0,0,0,78.34-5.1c9.93-2.78,19.64-6.39,29.35-10C489.22,435.67,507,429,522.5,423.22c2-26-2.89-51.55-10-76.49-1.5-5.26-7.82-30-10.91-34.41-8.52-12.05-18,.55-31.83-1.55-15.39-2.33-32.26-1.17-46.94-6.67a30,30,0,0,0-8.27-2.28c-3.14-.23-6.26.63-9.33,1.43-9.56,2.51-19.22,4.59-28.87,6.66l-13.94,3c-15.74,3.39-31.55,6.78-47.57,7.76C304.8,321.28,294.44,321,285.12,325.07Z"/><path class="cls-19" d="M273,332.12a113.61,113.61,0,0,0-12.66,30.13c-.37-4.57-.72-9.28.73-13.62a29.12,29.12,0,0,1,1.58-3.68C265.12,340,268.23,335,273,332.12Z"/><path class="cls-3" d="M518.28,423.57c3-6.05-.77-13.79-6.62-17.2s-13-3.51-19.76-3c-18.09,1.3-35.73,6.13-53.68,8.66-50.3,7.07-101.09-4.06-151.35-11.35-9.37-1.37-19.83-2.35-27.48,3.24-7.11,5.2-9.62,14.54-11.14,23.22,44.62,20.23,95.14,23.17,144.07,20.9C435.27,446,478.61,440.13,518.28,423.57Z"/><path class="cls-19" d="M316.72,325.61a7.52,7.52,0,0,0,.69,5.69A22.33,22.33,0,0,0,321,336l6.62,7.28c.84.92,1.69,2.39.81,3.28a1.77,1.77,0,0,1-2.17,0,8.18,8.18,0,0,1-1.62-1.7c-3.07-3.63-8.83-5-10.27-9.57C313.29,332,315,328.59,316.72,325.61Z"/><path class="cls-19" d="M445.69,313.25a15.18,15.18,0,0,1,6.91,15.5c-1.52,7.82-8.92,13.1-12.16,20.38a30.16,30.16,0,0,0,18.24-9c2.35-2.46,4.59-5.51,7.95-6.07a12.47,12.47,0,0,1,6,1c4.78,1.62,10.63,3.14,14.41-.2,1.3-1.15,2.17-2.77,3.63-3.72,2.61-1.7,6.09-.67,8.9.69s5.75,3.06,8.82,2.55l-10.92-15.16c-1.76-2.44-4.38-5.2-7.25-4.28-1.73.55-2.89,2.34-4.67,2.72-2.3.49-4.33-1.58-6.63-2.1-4.2-1-8,3.32-12.32,3.14-1.93-.08-3.69-1.05-5.44-1.87A37.37,37.37,0,0,0,445.69,313.25Z"/><path class="cls-19" d="M273.75,355.69l-6.82,9.57a47.91,47.91,0,0,1,14.24-34.88,4.54,4.54,0,0,1,2.45-1.49,6,6,0,0,1,3,.84,11.8,11.8,0,0,0,9.13,0c2.19-.93,4-2.5,6.17-3.55s4.83-1.52,6.8-.19c-2.8.26-4.35,3.74-3.64,6.47s2.9,4.77,5,6.6q5.65,4.86,11.67,9.24c1.7,1.23,3.54,3.65,2,5.07-1.33,1.24-3.39-.12-4.8-1.28-9.14-7.55-24.06-6.73-32.31,1.79.32-3-3.5-5-6.37-4.12S275.49,353.25,273.75,355.69Z"/><path class="cls-2" d="M443,316.05c-3.9-4.65-10.53-5.74-16.57-6.38-31-3.23-62.48-2.5-92.87,4.23a25.89,25.89,0,0,0-8.53,3c-2.56,1.64-4.6,4.38-4.64,7.41,0,3.28,2.18,6.13,4.45,8.5,12.46,13,29.92,20.77,47.83,22.82s36.21-1.41,52.82-8.4c6.43-2.71,12.88-6.14,17-11.8S447.52,321.4,443,316.05Z"/><path class="cls-20" d="M441.4,327.68a6.7,6.7,0,0,0-.64-3.24l-7.14-18.81A11.58,11.58,0,0,0,431,301c-1.52-1.41-3.67-1.89-5.71-2.28a182.48,182.48,0,0,0-75.54,1.55c-8.93,2.09-18.76,5.76-22.36,14.2-1.71,4-1.68,8.44-1.68,12.88a9.83,9.83,0,0,0,8.11,9.69c34.71,6.09,56.19,24.67,103.13-5.14C438.77,330.79,441.09,329.8,441.4,327.68Z"/><path class="cls-1" d="M334.62,324.21c3.78,2.55,8.23,3.88,12.64,5A191.31,191.31,0,0,0,384.34,335c-13-1.41-25.65-4.57-38.18-8.13-3.72-1.06-7.53-2.21-10.52-4.65s-5-6.53-3.84-10.22c-2.07,1.37-2.67,4.3-1.89,6.65A11.43,11.43,0,0,0,334.62,324.21Z"/><path class="cls-1" d="M417.91,329.8c4.57-1.63,9.21-3.53,12.7-6.91s5.59-8.61,4-13.22c0,4-2.28,7.82-5.31,10.48s-6.76,4.4-10.42,6.1l-17.09,7.92A90.85,90.85,0,0,0,417.91,329.8Z"/><path class="cls-2" d="M340.18,307.93c-3-.89-6.19,1.85-6.52,4.95s1.6,6.08,4.13,7.89,5.61,2.67,8.62,3.49c6.91,1.89,13.84,3.73,20.86,5.19,10.4,2.16,21.12,3.46,31.67,2.1s21-5.55,28.4-13.13c1.9-1.93,3.66-4.25,3.84-6.95.23-3.44-2.26-6.59-5.32-8.18s-6.58-1.94-10-2.23c-23.26-1.94-47.19-2.41-69.37,4.87Z"/><path class="cls-17" d="M336.07,315.39c7.46,5,16.34,7.38,25.12,9.23,11.79,2.49,23.89,4.17,35.87,2.89s23.9-5.77,32.49-14.22a126.82,126.82,0,0,1-12.9-45.11,185.06,185.06,0,0,1-76.44,3.33A94.6,94.6,0,0,1,336.07,315.39Z"/><path class="cls-18" d="M416,278.59c-1.31-7.66-6.88-13.9-13.41-17.07s-13.9-3.65-21-3.08a77.74,77.74,0,0,0-25.13,6.38c-4.2,1.84-8.58,4.43-10.29,9-1.6,4.29-.38,9.23,1.52,13.37,5.18,11.28,14.87,19.14,24.22,26.57,3.7,2.94,7.73,6,12.3,6,5.11,0,9.51-3.66,13.46-7.19,4.91-4.38,9.89-8.84,13.56-14.49S417.18,285.4,416,278.59Z"/><path class="cls-2" d="M341.88,267.21c-1.29,5.57,1.09,11.48,4.84,15.8s8.75,7.34,13.65,10.28l18,10.81a5.38,5.38,0,0,0,3,1,5.23,5.23,0,0,0,2.15-.81l15.65-8.62c5.13-2.82,10.35-5.71,14.39-10s6.79-10.13,5.86-15.91a93.34,93.34,0,0,1-73.72-.37Z"/><path class="cls-10" d="M445,191a40.49,40.49,0,0,0-10.18-14.75c-10.45-11.73-25.45-18.75-40.81-22.18-14.15-3.16-28.73-3.55-43.26-3.62a54.88,54.88,0,0,1-16-6.27,11,11,0,0,0,3.63,6.07,37.36,37.36,0,0,1-8.16-1.32c-4.95-1.46-9.66-4.57-11.83-9.25a26.69,26.69,0,0,0-3.72,17.37,36.74,36.74,0,0,1-1.7-15.39,37.18,37.18,0,0,0-1.76,16.42,22.19,22.19,0,0,0,5.14,11.41A24,24,0,0,1,305.68,164a39,39,0,0,0,5.68,18.11,45.5,45.5,0,0,1,4.81,11,24.54,24.54,0,0,1-10.69-8.57,24.27,24.27,0,0,0,11.89,13.75,52.24,52.24,0,0,1,.78,10c-.06,3.4,0,7.16,0,11.55,1.22,23.63,10.07,37.35,20.4,51.44a55,55,0,0,0,25,19l14.17,5.33a10.9,10.9,0,0,0,7.79-.06l15.16-6a55,55,0,0,0,24.23-18.68,218.09,218.09,0,0,0,13.3-21.23C448.24,231.93,452.67,209.87,445,191Z"/><path class="cls-16" d="M310.35,173.36a108.61,108.61,0,0,1,11.58,21.82A29.79,29.79,0,0,0,310.35,173.36Z"/><path class="cls-16" d="M429.42,206.57a41.22,41.22,0,0,1,.23,30.82,29.33,29.33,0,0,0-16.59-6.68,3.56,3.56,0,0,1-4.07,1.72,10.33,10.33,0,0,1-4.12-2.35c-1.23-1-2.6-2.48-1.93-3.9.53-1.11,2-1.35,3.09-1.89,2.54-1.23,3.53-4.62,2.62-7.29a9.89,9.89,0,0,0-5.94-5.67,29.5,29.5,0,0,0-8.3-1.55,31.93,31.93,0,0,1,24.41,1.55,126.47,126.47,0,0,0-21.7-8.27l7.69-1.24c-1-1.12,0-3,1.34-3.55a7,7,0,0,1,4.37.28c-1.38-4.48-4.74-8.14-8.61-10.77s-8.29-4.35-12.66-6l7.53-4.52-6.11-3.62q-1.46-4.26-2.9-8.52c-4.66-1.23-16.65-3-20.72-5.59,15.36-.5,38.37,3.31,51.59,11.14l-13-4.28a87.3,87.3,0,0,1,18.06,11.52l-13.31-5.12a58,58,0,0,1,28.92,23.83l-10.51-7a48.25,48.25,0,0,1,12.3,22.49A32.51,32.51,0,0,0,429.42,206.57Z"/><path class="cls-16" d="M410.84,162.63a52.07,52.07,0,0,0-41.79-5A124.85,124.85,0,0,1,410.84,162.63Z"/><path class="cls-16" d="M364.48,222.2A56.85,56.85,0,0,1,341,180.79a26.81,26.81,0,0,1-18.59-23.93,20.17,20.17,0,0,0,6.05,22.1c-.76,1.47-1.13,3.32-.27,4.73s3.33,1.72,4.07.24c0,5.88,5.59,9.94,8.95,14.76,3.46,5,4.62,11.11,6.13,17s3.69,12,8.43,15.71a8.61,8.61,0,0,1,1.81-6.59,21.4,21.4,0,0,0,3,12A29.8,29.8,0,0,1,364.48,222.2Z"/><path class="cls-16" d="M362.29,154.32a91.45,91.45,0,0,1,14.8-.48,32.34,32.34,0,0,0-18.64-.37Z"/><path class="cls-2" d="M537.45,423.06C529,416.57,517,420.46,507,424c-37.78,13.37-82.08,21.14-119.7,20.84-37.62.3-81.92-7.47-119.7-20.84-10-3.55-22.06-7.44-30.49-.95-8.75,6.74-7.25,21.3.2,29.45S256,464,266.66,466.71c39.61,10.13,66,17.37,119.9,17.84H388c53.89-.47,80.29-7.71,119.9-17.84,10.7-2.73,21.94-6,29.39-14.2S546.2,429.8,537.45,423.06Z"/><path class="cls-11" d="M535.38,417.59c-8.31-5-20.18-2-30.07.73-37.26,10.29-80.95,16.27-118,16-37.1.23-80.79-5.75-118-16-9.89-2.73-21.76-5.73-30.07-.73-8.63,5.18-7.15,16.39.2,22.66s18.43,8.83,29,10.93c39.07,7.8,65.1,13.37,118.25,13.73H388c53.15-.36,79.18-5.93,118.25-13.73,10.55-2.1,21.63-4.65,29-10.93S544,422.77,535.38,417.59Z"/><path class="cls-21" d="M529.55,435.26c3.27,3.66,3.9-2.75,6.27-2,4.9,1.54-.14-10.32,0-10.66-8.14-2.67-21.41,4.51-30.51,6.45-37.26,7.92-80.95,12.53-118,12.35-37.1.18-80.79-4.43-118-12.35-9.89-2.11-18.58-10.47-26.89-6.62-.37.17-3.89,6.4-4.22,6.59,1.07.76,2.16,1.5,3.28,2.19,2.18,1.33,4.41,2.57,6.67,3.74,6.81-.38,14.44,1.14,21.16,2.57,37.26,7.92,81,12.53,118.05,12.35,37.1.18,80.79-4.43,118.05-12.35C513.07,435.86,522,434.1,529.55,435.26Z"/><path class="cls-2" d="M111.31,269.58a25.42,25.42,0,0,0-4.8,8.31,7.9,7.9,0,0,0-.48,3.19c.31,3.64,3.26,3.71,5.28,5.16a6.81,6.81,0,0,1,2.54,4c1.07,4.1,6,7.13,9.9,6.26a49.88,49.88,0,0,1,14.57-1.43c3.35.23,5.54,1.13,8.87.62.62-.09,2.63-.67,2.94-1.25a8.55,8.55,0,0,0,.19-2.44,3.63,3.63,0,0,1,1.87-3.31c1.25-.65,2.57-.54,3.95-.69a48.66,48.66,0,0,1-3.16-9.14,1.94,1.94,0,0,1,1.05-2.26,9.5,9.5,0,0,0,3.83-2.95c-5.11-4-1.72-15.09-5.18-20.72a14,14,0,0,0-7.74-5.74c-3.07-1-8.45,1.35-11.66,1.4-3.7.06-7.61.45-10.61,2.74A18.36,18.36,0,0,0,119,255.4a73.61,73.61,0,0,0-5.85,9.79Z"/><path class="cls-7" d="M126.63,294a6.87,6.87,0,0,0,3.19.4c4.07-.14,9.15-1,10.18-5a35.64,35.64,0,0,1,9.25,2.83c.07-6.68-4.26-13.44-1.9-19.69,1.57-4.14,5.87-7.19,6.11-11.6.19-3.32-2-6.24-4.13-8.82s-4-4.88-6-7.31a4.37,4.37,0,0,0-1.88-1.59,5.05,5.05,0,0,0-2.93.29c-5.92,1.63-12.22.19-18.14-1.47a3.66,3.66,0,0,0-4.87,1.39l-11.19,13.36a13.64,13.64,0,0,0-2.25,3.31,13.49,13.49,0,0,0-.77,3.67l-1.41,12.35a7.44,7.44,0,0,0,.11,3.29c.71,2,2.95,3,4.8,4.11a18.1,18.1,0,0,1,6.48,6.67,8.29,8.29,0,0,1,12,.15C124.39,291.65,125.14,293.31,126.63,294Z"/><path class="cls-9" d="M144.89,288,141,278.73l3.78-8.36L133,276.24s-11.48-.89-12.88-1.81-9.83,8.38-9.83,8.38l.61,5.36,9.66-2.86,9.29,9.12,5.44-10.1,4.38,1.29Z"/><polygon class="cls-8" points="132.97 276.24 141.83 265.48 150.96 260.8 138.58 250.74 129.21 249.09 133.74 267.78 128.86 262.4 132.97 276.24"/><polygon class="cls-9" points="110.22 279.02 110.26 282.81 120.09 274.43 114.66 254.88 112.5 274.77 110.22 279.02"/><polygon class="cls-9" points="100.04 279.46 106.78 261.73 110.47 254.12 102.11 260.15 99.93 276.18 100.04 279.46"/><polygon class="cls-8" points="132.97 276.24 125.98 262.55 126.81 250.23 121.83 269.1 123.88 274.38 132.97 276.24"/><polygon class="cls-8" points="108.84 277.93 110.8 259.03 103.45 279.46 107.58 285.5 110.87 288.17 108.84 277.93"/><polygon class="cls-8" points="144.89 288.02 148.29 290.44 147.35 272.59 149.67 266.6 140.98 278.73 144.89 288.02"/><path class="cls-8" d="M117.28,255.45l5.46-9.07S114,248,113.9,248.66,117.28,255.45,117.28,255.45Z"/><path class="cls-2" d="M142.59,271.79a11.86,11.86,0,0,1-2,6.61c-2.34.2-4.6-1.27-6.93-1-2.54.34-4.44,2.69-7,3.13a9.91,9.91,0,0,1-4.13-.49l-7.52-2A65.53,65.53,0,0,0,117,266.5a26.68,26.68,0,0,1,3.12,8l12.26,1.19a6.16,6.16,0,0,0,2,0,6,6,0,0,0,1.21-.48Z"/><path class="cls-2" d="M108.5,149.65C101,146,91.9,146.7,83.86,147a58.89,58.89,0,0,0-23,5.42,16,16,0,0,0-5.21,3.5c-.66.72-1.23,1.81-.69,2.64a2.35,2.35,0,0,0,1.41.83c3.28.89,6.82.52,10.05,1.57a8.46,8.46,0,0,1,3.74,2.53c3.88,4.6,9.5,7.47,15.5,7,4-.34,5.71-2.66,11.56-3.1,2.42-.19,4.27-2.33,6.54-3.18,2.77-1,5.79-1.43,8.19-3.39a6.06,6.06,0,0,0,1.61-2C115.41,154.85,112,151.33,108.5,149.65Z"/><path class="cls-7" d="M57.55,150.28c1.82,4.36,6,7.22,9.93,9.82,4.14,2.73,8.46,5.54,13.37,6.25a6.51,6.51,0,0,0,3-.12,11.5,11.5,0,0,0,2.7-1.63c6.9-4.69,16.8-2.22,23.89-6.62,4.89-3,7.39-8.7,9.61-14a5.43,5.43,0,0,0,.6-2.44,4.54,4.54,0,0,0-1.55-2.75c-3.65-3.57-9.7-5.51-10.6-10.54-2.93,1.26-6,2.55-9.2,2.31s-6.46-2.59-6.59-5.78c-.08-2,1-4.46-.5-5.88-3.39,1.88-7,3.65-10.91,3.61s-8-2.45-8.71-6.26a17.13,17.13,0,0,0-2.17,6.39l-5.49-.68a55.19,55.19,0,0,0-7.1,15.17C56.54,141.4,55.83,146.14,57.55,150.28Z"/><path class="cls-9" d="M69.55,126.63l11.5,1.25,3.25,12.25,6.75,4.75,11.54-5.49,9.46,1.49,5-.5-6.5-5s-7.75-2-8.75-1.75-6.75,4.75-6.75,4.75l-3.75-7v-7.25l-5.75,8.25-1.25-8.25-9-.5-8.5.5Z"/><path class="cls-9" d="M78.55,129.38c-.83.17-6.33,3.33-6.33,3.33l-1.5,21.84,5.67-16.5,3.5-3.34Z"/><polygon class="cls-8" points="102.59 139.39 95.05 151.38 83.89 162.05 102.89 152.55 107.39 143.88 109.05 139.72 102.59 139.39"/><polygon class="cls-8" points="65.39 125.88 63.22 136.88 59.89 143.72 62.05 152.05 66.89 157.22 64.72 152.05 65.89 147.38 65.69 130.86 67.89 128.05 65.39 125.88"/><polygon class="cls-8" points="91.05 144.88 80.22 163.22 92.22 154.05 100.39 141.05 91.05 144.88"/><path class="cls-8" d="M96.72,160.38c.5-.67,10.5-6.83,10.5-6.83l2.17,1.83Z"/><polygon class="cls-8" points="98.39 132.38 95.05 138.38 104.72 132.05 108.48 128.23 98.39 132.38"/><path class="cls-2" d="M88,136.81a5.24,5.24,0,0,0,1.28,1.25,5.36,5.36,0,0,0,1.36.54l3.87,1.11a6.83,6.83,0,0,0,1.83.36,7.05,7.05,0,0,0,2.26-.5l5.43-1.84a1.56,1.56,0,0,1,.73-.14,1.7,1.7,0,0,1,.83.45l2.71,2.2c-3.42-.73-6.92.45-10.21,1.62L91,144.37a3.27,3.27,0,0,1-.91.22,3.2,3.2,0,0,1-1.87-.82l-3.42-2.53q-.62-4.91-1.21-9.81Z"/><rect class="cls-9" x="40.06" y="227.14" width="54.17" height="54.17" transform="translate(-192.21 297.48) rotate(-84.67)"/><rect class="cls-12" x="39.3" y="226.4" width="54.17" height="54.17" transform="translate(-192.17 296.04) rotate(-84.67)"/><path class="cls-2" d="M66.69,257.49c-5.09,0-10.19-.13-15.23-.38l0-1c7.72.39,15.56.48,23.29.27l0,1Q70.77,257.49,66.69,257.49Z"/><path class="cls-2" d="M81.77,265.38a228.14,228.14,0,0,0-30.93-.9l0-1a230.21,230.21,0,0,1,31.07.9Z"/><rect class="cls-9" x="50.56" y="190.81" width="54.17" height="54.17" transform="translate(-31.92 14.17) rotate(-8.66)"/><rect class="cls-14" x="49.63" y="190.27" width="54.17" height="54.17" transform="translate(-31.85 14.03) rotate(-8.66)"/><rect class="cls-7" x="68.07" y="183.92" width="7.25" height="14"/><path class="cls-2" d="M61.29,209.24l-.21-1a260.69,260.69,0,0,1,34-5.13l.08,1A259,259,0,0,0,61.29,209.24Z"/><path class="cls-2" d="M57,220.18l-.26-1c12.11-3.34,24.52-6.13,36.89-8.29l.17,1C81.44,214.06,69.06,216.85,57,220.18Z"/><path class="cls-2" d="M65.58,225.13l-.18-1c9.25-1.62,18.68-3,28-4.13l.12,1C84.22,222.12,74.81,223.51,65.58,225.13Z"/><rect class="cls-2" x="63.83" y="233.43" width="35.3" height="1" transform="translate(-42.2 19.3) rotate(-10.75)"/></g></svg>